<?xml version="1.0" encoding="UTF-8"?>
<svg id="Layer_1" xmlns="http://www.w3.org/2000/svg" version="1.1" viewBox="0 0 595.28 841.89">
  <!-- Generator: Adobe Illustrator 30.1.0, SVG Export Plug-In . SVG Version: 2.1.1 Build 136)  -->
  <defs>
    <style>
      .st0 {
        fill: #e21f26;
      }

      .st1 {
        fill: #fff;
      }

      .st2 {
        fill: none;
        stroke: #000;
        stroke-miterlimit: 10;
        stroke-width: 8px;
      }
    </style>
  </defs>
  <polygon class="st0" points="379.48 293.45 215.43 267.45 215.43 208.01 379.48 208.01 379.48 293.45"/>
  <rect class="st0" x="293.47" y="151.43" width="7.87" height="42.4"/>
  <rect x="172.18" y="197.89" width="249.44" height="10.11" rx="3.99" ry="3.99"/>
  <rect x="98.28" y="135.35" width="397.76" height="10.94"/>
  <rect x="451.13" y="135.35" width="23.51" height="496.66"/>
  <rect x="119.67" y="135.35" width="23.51" height="496.66"/>
  <circle cx="296.6" cy="666.56" r="15.21"/>
  <path d="M131.42,534.42v61.7h331.46v-61.7H131.42ZM296.59,591.43c-14.38,0-26.03-11.65-26.03-26.03s11.65-26.03,26.03-26.03,26.03,11.65,26.03,26.03-11.66,26.03-26.03,26.03Z"/>
  <path class="st1" d="M328.56,651.89c.06.2.09.4.09.6,0,.49-.17.96-.48,1.43l-.72,3.77-4.73,24.6h-.01c-.98,5.25-3.54,9.94-7.16,13.56-4.71,4.72-11.22,7.63-18.41,7.63s-13.7-2.91-18.41-7.63c-3.62-3.62-6.18-8.31-7.16-13.56h-.01l-4.73-24.6-.72-3.77c-.23-.35-.39-.71-.45-1.07,2.3,3.97,15.38,7.02,31.16,7.02,17.4,0,31.51-3.71,31.51-8.27,0-.1-.01-.21-.02-.31.03.04.05.09.07.13h.27l-.09.47Z"/>
  <rect x="143.18" y="527.3" width="307.95" height="7.12"/>
  <rect x="143.18" y="596.12" width="307.95" height="7.12"/>
  <ellipse class="st2" cx="296.6" cy="652.42" rx="31.51" ry="8.27"/>
  <path class="st2" d="M265.09,651.35l1.2,6.27,4.73,24.6h.01c.98,5.25,3.54,9.94,7.16,13.56,4.71,4.72,11.22,7.63,18.41,7.63s13.7-2.91,18.41-7.63c3.62-3.62,6.18-8.31,7.16-13.56h.01l4.73-24.6,1.2-6.27"/>
</svg>