<?xml version="1.0" encoding="UTF-8"?>
<svg id="Layer_1" xmlns="http://www.w3.org/2000/svg" version="1.1" viewBox="0 0 595.28 567.04">
  <!-- Generator: Adobe Illustrator 30.1.0, SVG Export Plug-In . SVG Version: 2.1.1 Build 136)  -->
  <defs>
    <style>
      .st0 {
        fill: #e21f26;
      }

      .st1 {
        fill: #010101;
      }

      .st2 {
        fill: #e22228;
      }

      .st3 {
        fill: #f7f8f8;
      }

      .st4 {
        fill: #fff;
      }

      .st5 {
        fill: none;
        stroke: #000;
        stroke-miterlimit: 10;
        stroke-width: 8px;
      }
    </style>
  </defs>
  <g>
    <polygon class="st0" points="-332.06 234.19 -496.11 208.19 -496.11 148.74 -332.06 148.74 -332.06 234.19"/>
    <rect class="st0" x="-418.07" y="92.17" width="7.87" height="42.4"/>
    <rect x="-539.36" y="138.63" width="249.44" height="10.11" rx="-20.24" ry="-20.24"/>
    <rect x="-419.85" y="-117.32" width="10.94" height="397.76" transform="translate(-332.82 495.94) rotate(90)"/>
    <rect x="-260.4" y="76.09" width="23.51" height="496.66" transform="translate(-497.3 648.83) rotate(-180)"/>
    <rect x="-591.86" y="76.09" width="23.51" height="496.66" transform="translate(-1160.22 648.83) rotate(-180)"/>
    <circle cx="-414.94" cy="506.01" r="15.21"/>
    <path d="M-580.12,475.16v61.7H-248.66v-61.7h-331.46ZM-414.95,532.17c-14.38,0-26.03-11.65-26.03-26.03s11.65-26.03,26.03-26.03,26.03,11.65,26.03,26.03-11.66,26.03-26.03,26.03Z"/>
    <path class="st5" d="M-446.45,592.09l1.2,6.27,4.73,24.6h.01c.98,5.25,3.54,9.94,7.16,13.56,4.71,4.72,11.22,7.63,18.41,7.63s13.7-2.91,18.41-7.63c3.62-3.62,6.18-8.31,7.16-13.56h.01l4.73-24.6,1.2-6.27"/>
    <ellipse class="st5" cx="-414.94" cy="593.15" rx="31.51" ry="8.27"/>
    <rect x="-568.36" y="468.04" width="307.95" height="7.12"/>
    <rect x="-568.36" y="536.86" width="307.95" height="7.12"/>
  </g>
  <g>
    <rect class="st2" x="20.82" y="21.4" width="151.89" height="146.47"/>
    <rect class="st2" x="422.57" y="21.4" width="151.89" height="146.47"/>
    <rect class="st2" x="422.57" y="400.04" width="151.89" height="146.47"/>
    <rect class="st2" x="20.82" y="400.04" width="151.89" height="146.47"/>
    <path class="st1" d="M92.55,194.72v178.4h23.21v-178.4h-23.21ZM477.4,194.72v178.4h23.21v-178.4h-23.21ZM202.26,484.88h188.08v-23.21h-188.08v23.21ZM206.17,83.02v23.21h180.29v-23.21h-180.29Z"/>
    <path class="st1" d="M403.73,373.12h-13.39v19.33l-64.65-63.59,1.33-1.36c5.27-3.71,9.81-8.32,13.43-13.66.03-.03.07-.07.07-.1l1.43-1.43,61.8,60.8Z"/>
    <path class="st1" d="M267.47,239.08c-6.6,4.21-12.17,9.85-16.31,16.48l-61.83-60.84h16.84v-15.98l61.3,60.34Z"/>
    <path class="st1" d="M403.83,194.72l-61.9,60.9-1.29-1.33c-3.71-5.57-8.42-10.38-13.92-14.16l-1.03-1.06,60.77-59.81v15.45h17.37Z"/>
    <path class="st1" d="M202.26,393.01v-19.89h-12.83l61.77-60.77c4.08,6.53,9.58,12.1,16.05,16.28l.23.23-65.21,64.15Z"/>
    <circle class="st1" cx="296.32" cy="283.92" r="28.3"/>
    <polygon class="st4" points="37.9 533.84 34.59 533.84 34.59 413.98 154.44 413.98 154.44 417.3 37.9 417.3 37.9 533.84"/>
    <polygon class="st4" points="37.9 153.73 34.59 153.73 34.59 33.87 154.44 33.87 154.44 37.19 37.9 37.19 37.9 153.73"/>
    <polygon class="st4" points="443.17 533.84 439.85 533.84 439.85 413.98 559.71 413.98 559.71 417.3 443.17 417.3 443.17 533.84"/>
    <polygon class="st4" points="441.07 153.73 437.76 153.73 437.76 33.88 557.61 33.88 557.61 37.19 441.07 37.19 441.07 153.73"/>
  </g>
  <path class="st2" d="M-728.83,191.28c7.37,1.52,14.58-3.23,16.1-10.6h0c1.52-7.37-3.23-14.58-10.6-16.1l-52.72-10.86c-2.35-.48-3.87-2.79-3.38-5.14l8.44-40.98c1.52-7.37-3.23-14.58-10.6-16.1l-.26-.05c-7.37-1.52-14.58,3.23-16.1,10.6l-8.44,40.98c-.48,2.35-2.79,3.87-5.14,3.38l-115.99-23.89c-2.35-.48-3.87-2.79-3.38-5.14l8.44-40.98c1.52-7.37-3.23-14.58-10.6-16.1l-.26-.05c-7.37-1.52-14.58,3.23-16.1,10.6l-8.44,40.98c-.48,2.35-2.79,3.87-5.14,3.38l-128.35-26.44c-2.35-.48-3.87-2.79-3.38-5.14l8.44-40.98c1.52-7.37-3.23-14.58-10.6-16.1l-.26-.05c-7.37-1.52-14.58,3.23-16.1,10.6l-8.44,40.98c-.48,2.35-2.79,3.87-5.14,3.38l-38.4-7.91c-7.37-1.52-14.58,3.23-16.1,10.6h0c-1.52,7.37,3.23,14.58,10.6,16.1l38.4,7.91c2.35.48,3.87,2.79,3.38,5.14l-26.16,127.02c-.48,2.35-2.79,3.87-5.14,3.38l-38.4-7.91c-7.37-1.52-14.58,3.23-16.1,10.6h0c-1.52,7.37,3.23,14.58,10.6,16.1l38.4,7.91c2.35.48,3.87,2.79,3.38,5.14l-26.16,127.02c-.48,2.35-2.79,3.87-5.14,3.38l-38.4-7.91c-7.37-1.52-14.58,3.23-16.1,10.6h0c-1.52,7.37,3.23,14.58,10.6,16.1l38.4,7.91c2.35.48,3.87,2.79,3.38,5.14l-8.1,39.31c-1.52,7.37,3.23,14.58,10.6,16.1l.26.05c7.37,1.52,14.58-3.23,16.1-10.6l8.1-39.31c.48-2.35,2.79-3.87,5.14-3.38l128.35,26.44c2.35.48,3.87,2.79,3.38,5.14l-8.1,39.31c-1.52,7.37,3.23,14.58,10.6,16.1l.26.05c7.37,1.52,14.58-3.23,16.1-10.6l8.1-39.31c.48-2.35,2.79-3.87,5.14-3.38l115.99,23.89c2.35.48,3.87,2.79,3.38,5.14l-8.1,39.31c-1.52,7.37,3.23,14.58,10.6,16.1l.26.05c7.37,1.52,14.58-3.23,16.1-10.6l8.1-39.31c.48-2.35,2.79-3.87,5.14-3.38l52.72,10.86c7.37,1.52,14.58-3.23,16.1-10.6h0c1.52-7.37-3.23-14.58-10.6-16.1l-52.72-10.86c-2.35-.48-3.87-2.79-3.38-5.14l26.16-127.02c.48-2.35,2.79-3.87,5.14-3.38l52.72,10.86c7.37,1.52,14.58-3.23,16.1-10.6h0c1.52-7.37-3.23-14.58-10.6-16.1l-52.72-10.86c-2.35-.48-3.87-2.79-3.38-5.14l26.16-127.02c.48-2.35,2.79-3.87,5.14-3.38l52.72,10.86ZM-1096.84,115.47l128.35,26.44c2.35.48,3.87,2.79,3.38,5.14l-26.16,127.02c-.48,2.35-2.79,3.87-5.14,3.38l-128.35-26.44c-2.35-.48-3.87-2.79-3.38-5.14l26.16-127.02c.48-2.35,2.79-3.87,5.14-3.38ZM-1161.56,408.1l26.16-127.02c.48-2.35,2.79-3.87,5.14-3.38l128.35,26.44c2.35.48,3.87,2.79,3.38,5.14l-26.16,127.02c-.48,2.35-2.79,3.87-5.14,3.38l-128.35-26.44c-2.35-.48-3.87-2.79-3.38-5.14ZM-878.36,470.88l-115.99-23.89c-2.35-.48-3.87-2.79-3.38-5.14l26.16-127.02c.48-2.35,2.79-3.87,5.14-3.38l115.99,23.89c2.35.48,3.87,2.79,3.38,5.14l-26.16,127.02c-.48,2.35-2.79,3.87-5.14,3.38ZM-844.94,308.65l-115.99-23.89c-2.35-.48-3.87-2.79-3.38-5.14l26.16-127.02c.48-2.35,2.79-3.87,5.14-3.38l115.99,23.89c2.35.48,3.87,2.79,3.38,5.14l-26.16,127.02c-.48,2.35-2.79,3.87-5.14,3.38Z"/>
  <path class="st1" d="M-771.14,326.72c1.75.36,3.46-.77,3.82-2.51.36-1.75-.77-3.46-2.51-3.82l-64.85-13.36,32.11-155.9,64.85,13.36c1.75.36,3.46-.77,3.82-2.52.36-1.75-.77-3.46-2.51-3.82l-64.85-13.36,11.43-55.51c.36-1.75-.77-3.46-2.52-3.82-1.75-.36-3.46.77-3.82,2.51l-11.43,55.51-146.56-30.19,11.43-55.51c.36-1.75-.77-3.46-2.51-3.82h0c-1.75-.36-3.46.77-3.82,2.51l-11.43,55.51-155.9-32.11,11.43-55.51c.36-1.75-.77-3.46-2.51-3.82-1.75-.36-3.46.77-3.82,2.51l-11.43,55.51-55.51-11.43c-1.75-.36-3.46.77-3.82,2.51-.36,1.75.77,3.46,2.51,3.82l55.51,11.43-32.11,155.9-55.51-11.43c-1.75-.36-3.46.77-3.82,2.51-.36,1.75.77,3.46,2.52,3.82l55.51,11.43-32.11,155.9-55.51-11.43c-1.75-.36-3.46.77-3.82,2.51-.36,1.75.77,3.46,2.51,3.82l55.51,11.43-11.43,55.51c-.36,1.75.77,3.46,2.51,3.82s3.46-.77,3.82-2.51l11.43-55.51,155.9,32.11-11.43,55.51c-.36,1.75.77,3.46,2.51,3.82,1.75.36,3.46-.77,3.82-2.51l11.43-55.51,146.56,30.19-11.43,55.51c-.36,1.75.77,3.46,2.51,3.82,1.75.36,3.46-.77,3.82-2.51l11.43-55.51,64.85,13.36c1.75.36,3.46-.77,3.82-2.52.36-1.75-.77-3.46-2.51-3.82l-64.85-13.36,32.11-155.9,64.85,13.36ZM-808.91,149.82l-32.11,155.9-146.56-30.19,32.11-155.9,146.56,30.19ZM-1117.7,86.22l155.9,32.11-32.11,155.9-155.9-32.11,32.11-155.9ZM-1183.23,404.35l32.11-155.9,155.9,32.11-32.11,155.9-155.9-32.11ZM-874.44,467.95l-146.56-30.19,32.11-155.9,146.56,30.19-32.11,155.9Z"/>
  <path class="st3" d="M-774.96,319.88c1.75.36,3.46-.77,3.82-2.51.36-1.75-.77-3.46-2.51-3.82l-64.85-13.36,32.11-155.9,64.85,13.36c1.75.36,3.46-.77,3.82-2.52.36-1.75-.77-3.46-2.51-3.82l-64.85-13.36,11.43-55.51c.36-1.75-.77-3.46-2.52-3.82-1.75-.36-3.46.77-3.82,2.51l-11.43,55.51-146.56-30.19,11.43-55.51c.36-1.75-.77-3.46-2.51-3.82h0c-1.75-.36-3.46.77-3.82,2.51l-11.43,55.51-155.9-32.11,11.43-55.51c.36-1.75-.77-3.46-2.51-3.82-1.75-.36-3.46.77-3.82,2.51l-11.43,55.51-55.51-11.43c-1.75-.36-3.46.77-3.82,2.51-.36,1.75.77,3.46,2.51,3.82l55.51,11.43-32.11,155.9-55.51-11.43c-1.75-.36-3.46.77-3.82,2.51-.36,1.75.77,3.46,2.52,3.82l55.51,11.43-32.11,155.9-55.51-11.43c-1.75-.36-3.46.77-3.82,2.51-.36,1.75.77,3.46,2.51,3.82l55.51,11.43-11.43,55.51c-.36,1.75.77,3.46,2.51,3.82,1.75.36,3.46-.77,3.82-2.51l11.43-55.51,155.9,32.11-11.43,55.51c-.36,1.75.77,3.46,2.51,3.82,1.75.36,3.46-.77,3.82-2.51l11.43-55.51,146.56,30.19-11.43,55.51c-.36,1.75.77,3.46,2.51,3.82s3.46-.77,3.82-2.51l11.43-55.51,64.85,13.36c1.75.36,3.46-.77,3.82-2.52.36-1.75-.77-3.46-2.51-3.82l-64.85-13.36,32.11-155.9,64.85,13.36ZM-812.73,142.99l-32.11,155.9-146.56-30.19,32.11-155.9,146.56,30.19ZM-1121.52,79.38l155.9,32.11-32.11,155.9-155.9-32.11,32.11-155.9ZM-1187.05,397.51l32.11-155.9,155.9,32.11-32.11,155.9-155.9-32.11ZM-878.26,461.11l-146.56-30.19,32.11-155.9,146.56,30.19-32.11,155.9Z"/>
  <rect class="st1" x="-1139.61" y="182.35" width="116.63" height="4.28" transform="translate(-1044.48 -911.81) rotate(-78.39)"/>
  <rect class="st1" x="-1135.5" y="183.2" width="116.63" height="4.28" transform="translate(-1042.02 -907.11) rotate(-78.39)"/>
  <rect class="st1" x="-1094.64" y="191.6" width="116.63" height="4.28" transform="translate(-1017.11 -860.36) rotate(-78.37)"/>
  <rect class="st1" x="-1090.53" y="192.45" width="116.63" height="4.28" transform="translate(-1015.16 -855.67) rotate(-78.39)"/>
  <rect class="st1" x="-1116.18" y="187.17" width="116.63" height="4.28" transform="translate(-1030.48 -885.01) rotate(-78.39)"/>
  <rect class="st1" x="-1112.07" y="188.02" width="116.63" height="4.28" transform="translate(-1028.02 -880.31) rotate(-78.39)"/>
  <rect class="st1" x="-1072.84" y="196.09" width="116.63" height="4.28" transform="translate(-1004.6 -835.44) rotate(-78.39)"/>
  <rect class="st1" x="-1068.73" y="196.93" width="116.63" height="4.28" transform="translate(-1002.14 -830.74) rotate(-78.39)"/>
  <rect class="st1" x="-984.91" y="214.17" width="116.63" height="4.28" transform="translate(-952.07 -734.86) rotate(-78.39)"/>
  <rect class="st1" x="-980.8" y="215.02" width="116.63" height="4.28" transform="translate(-949.62 -730.16) rotate(-78.39)"/>
  <rect class="st1" x="-939.94" y="223.42" width="116.63" height="4.28" transform="translate(-925.21 -683.41) rotate(-78.39)"/>
  <rect class="st1" x="-935.83" y="224.27" width="116.63" height="4.28" transform="translate(-922.75 -678.71) rotate(-78.39)"/>
  <rect class="st1" x="-961.48" y="218.99" width="116.63" height="4.28" transform="translate(-938.07 -708.05) rotate(-78.39)"/>
  <rect class="st1" x="-957.37" y="219.84" width="116.63" height="4.28" transform="translate(-935.62 -703.35) rotate(-78.39)"/>
  <rect class="st1" x="-918.14" y="227.91" width="116.63" height="4.28" transform="translate(-912.19 -658.49) rotate(-78.39)"/>
  <rect class="st1" x="-914.03" y="228.75" width="116.63" height="4.28" transform="translate(-909.73 -653.78) rotate(-78.39)"/>
  <rect class="st1" x="-1020.35" y="377.8" width="116.63" height="4.28" transform="translate(-1140.67 -638.86) rotate(-78.39)"/>
  <rect class="st1" x="-1016.24" y="378.65" width="116.63" height="4.28" transform="translate(-1138.21 -634.16) rotate(-78.39)"/>
  <rect class="st1" x="-975.38" y="387.05" width="116.63" height="4.28" transform="translate(-1113.8 -587.42) rotate(-78.39)"/>
  <rect class="st1" x="-971.27" y="387.9" width="116.63" height="4.28" transform="translate(-1111.34 -582.72) rotate(-78.39)"/>
  <rect class="st1" x="-996.92" y="382.62" width="116.63" height="4.28" transform="translate(-1126.67 -612.06) rotate(-78.39)"/>
  <rect class="st1" x="-992.81" y="383.47" width="116.63" height="4.28" transform="translate(-1124.21 -607.36) rotate(-78.39)"/>
  <rect class="st1" x="-953.58" y="391.54" width="116.63" height="4.28" transform="translate(-1100.78 -562.49) rotate(-78.39)"/>
  <rect class="st1" x="-949.47" y="392.38" width="116.63" height="4.28" transform="translate(-1098.33 -557.79) rotate(-78.39)"/>
  <rect class="st1" x="-1177.27" y="347.32" width="116.63" height="4.28" transform="translate(-1236.15 -816.92) rotate(-78.39)"/>
  <rect class="st1" x="-1173.16" y="348.16" width="116.63" height="4.28" transform="translate(-1233.69 -812.22) rotate(-78.39)"/>
  <rect class="st1" x="-1132.29" y="356.57" width="116.63" height="4.28" transform="translate(-1209.28 -765.48) rotate(-78.39)"/>
  <rect class="st1" x="-1128.18" y="357.41" width="116.63" height="4.28" transform="translate(-1206.83 -760.78) rotate(-78.39)"/>
  <rect class="st1" x="-1153.83" y="352.14" width="116.63" height="4.28" transform="translate(-1222.15 -790.12) rotate(-78.39)"/>
  <rect class="st1" x="-1149.72" y="352.98" width="116.63" height="4.28" transform="translate(-1219.69 -785.42) rotate(-78.39)"/>
  <rect class="st1" x="-1110.5" y="361.05" width="116.63" height="4.28" transform="translate(-1196.27 -740.55) rotate(-78.39)"/>
  <rect class="st1" x="-1106.39" y="361.9" width="116.63" height="4.28" transform="translate(-1193.81 -735.85) rotate(-78.39)"/>
  <rect class="st1" x="-920.19" y="301.65" width="4.28" height="99.83" transform="translate(-1070.8 -619.56) rotate(-77.98)"/>
  <rect class="st1" x="-921.01" y="305.76" width="4.28" height="99.83" transform="translate(-1075.51 -617.1) rotate(-77.99)"/>
  <rect class="st1" x="-929.18" y="346.67" width="4.28" height="99.83" transform="translate(-1121.98 -592.7) rotate(-77.99)"/>
  <rect class="st1" x="-930" y="350.78" width="4.28" height="99.83" transform="translate(-1126.66 -590.24) rotate(-77.99)"/>
  <rect class="st1" x="-924.87" y="325.11" width="4.28" height="99.83" transform="translate(-1097.49 -605.56) rotate(-77.99)"/>
  <rect class="st1" x="-925.7" y="329.22" width="4.28" height="99.83" transform="translate(-1102.16 -603.11) rotate(-77.99)"/>
  <rect class="st1" x="-933.53" y="368.48" width="4.28" height="99.83" transform="translate(-1146.77 -579.68) rotate(-77.99)"/>
  <rect class="st1" x="-934.35" y="372.6" width="4.28" height="99.83" transform="translate(-1151.44 -577.23) rotate(-77.99)"/>
  <rect class="st1" x="-886.48" y="138.16" width="4.28" height="99.83" transform="translate(-884.23 -716.04) rotate(-77.99)"/>
  <rect class="st1" x="-887.3" y="142.27" width="4.28" height="99.83" transform="translate(-888.88 -713.58) rotate(-77.99)"/>
  <rect class="st1" x="-895.46" y="183.18" width="4.28" height="99.83" transform="translate(-935.38 -689.18) rotate(-77.99)"/>
  <rect class="st1" x="-896.28" y="187.29" width="4.28" height="99.83" transform="translate(-940.03 -686.73) rotate(-77.99)"/>
  <rect class="st1" x="-891.16" y="161.61" width="4.28" height="99.83" transform="translate(-910.88 -702.05) rotate(-77.99)"/>
  <rect class="st1" x="-891.98" y="165.73" width="4.28" height="99.83" transform="translate(-915.55 -699.59) rotate(-77.99)"/>
  <rect class="st1" x="-899.82" y="204.99" width="4.28" height="99.83" transform="translate(-960.16 -676.17) rotate(-77.99)"/>
  <rect class="st1" x="-900.64" y="209.11" width="4.28" height="99.83" transform="translate(-964.82 -673.71) rotate(-77.99)"/>
  <rect class="st1" x="-1041.18" y="106.8" width="4.28" height="99.83" transform="translate(-976.05 -892.18) rotate(-77.99)"/>
  <rect class="st1" x="-1042" y="110.91" width="4.28" height="99.83" transform="translate(-980.71 -889.73) rotate(-77.99)"/>
  <rect class="st1" x="-1050.16" y="151.82" width="4.28" height="99.83" transform="translate(-1027.2 -865.32) rotate(-77.99)"/>
  <rect class="st1" x="-1050.98" y="155.93" width="4.28" height="99.83" transform="translate(-1031.86 -862.87) rotate(-77.99)"/>
  <rect class="st1" x="-1045.86" y="130.26" width="4.28" height="99.83" transform="translate(-1002.68 -878.19) rotate(-77.99)"/>
  <rect class="st1" x="-1046.68" y="134.37" width="4.28" height="99.83" transform="translate(-1007.38 -875.73) rotate(-77.99)"/>
  <rect class="st1" x="-1054.52" y="173.63" width="4.28" height="99.83" transform="translate(-1051.97 -852.31) rotate(-77.99)"/>
  <rect class="st1" x="-1055.34" y="177.75" width="4.28" height="99.83" transform="translate(-1056.66 -849.85) rotate(-77.99)"/>
  <rect class="st1" x="-1078.83" y="271.3" width="4.28" height="99.83" transform="translate(-1166.77 -798.75) rotate(-77.99)"/>
  <rect class="st1" x="-1079.65" y="275.42" width="4.28" height="99.83" transform="translate(-1171.45 -796.29) rotate(-77.99)"/>
  <rect class="st1" x="-1087.82" y="316.32" width="4.28" height="99.83" transform="translate(-1217.92 -771.89) rotate(-77.99)"/>
  <rect class="st1" x="-1088.64" y="320.43" width="4.28" height="99.83" transform="translate(-1222.55 -769.44) rotate(-77.98)"/>
  <rect class="st1" x="-1083.51" y="294.76" width="4.28" height="99.83" transform="translate(-1193.42 -784.75) rotate(-77.99)"/>
  <rect class="st1" x="-1084.33" y="298.87" width="4.28" height="99.83" transform="translate(-1198.1 -782.3) rotate(-77.99)"/>
  <rect class="st1" x="-1092.17" y="338.14" width="4.28" height="99.83" transform="translate(-1242.71 -758.87) rotate(-77.99)"/>
  <rect class="st1" x="-1092.99" y="342.25" width="4.28" height="99.83" transform="translate(-1247.38 -756.42) rotate(-77.99)"/>
  <g>
    <path class="st2" d="M-1101.51-273.39h-413.84c-17.58,0-31.83,14.25-31.83,31.83v31.83h477.51v-31.83c0-17.58-14.25-31.83-31.83-31.83Z"/>
    <path class="st1" d="M-1467.6-337.06c-17.58,0-31.83,14.25-31.83,31.83h382.01c0-17.58-14.25-31.83-31.83-31.83h-318.34Z"/>
    <path class="st2" d="M-1340.26-671.32c-11.46,79.59-80.54,143.25-118.42,173.34-30.72,23.88-24.83,55.07-24.83,97.25,13.18,6.54,23.28,17.96,28.17,31.83h293.83c9.71-27.7,31.83-33.27,72.74-54.12l-66.37-26.58c-8.18-3.25-12.17-12.52-8.91-20.69,3.25-8.18,12.52-12.17,20.69-8.91l73.7,29.29-1.91-30.4-83.56-33.43c-8.18-3.25-12.17-12.52-8.91-20.69,3.25-8.18,12.52-12.17,20.69-8.91h0l70.51,28.33-1.27-28.97-81.02-31.83c-8.18-3.25-12.17-12.52-8.91-20.69,3.25-8.18,12.52-12.17,20.69-8.91l67.81,27.06-1.11-29.76-78.47-31.83c-8.18-3.25-12.17-12.52-8.91-20.69,3.25-8.18,12.52-12.17,20.69-8.91l65.26,26.1c-.14-10.12-.88-20.22-2.23-30.24l-74.81-29.92c-8.18-3.25-12.17-12.52-8.91-20.69,3.25-8.18,12.52-12.17,20.69-8.91l54.28,21.65c-24.93-78.1-90.92-136.08-171.59-150.73-25.89-39.52-65.64-67.91-111.42-79.59l15.92,79.59c-57.02.05-107.63,36.51-125.74,90.57-2.23,7,7.64-4.3-65.26,68.6l47.75,63.67,159.17-31.83ZM-1399.32-794.04c6.19-6.24,16.27-6.28,22.51-.09,3.04,3.01,4.73,7.12,4.71,11.39,0,8.79-7.13,15.92-15.92,15.92-8.79.05-15.96-7.03-16.01-15.82-.02-4.28,1.67-8.38,4.71-11.39Z"/>
  </g>
  <g>
    <polygon class="st2" points="-121.36 -430.37 -484.39 -487.91 -484.39 -619.46 -121.36 -619.46 -121.36 -430.37"/>
    <rect class="st2" x="-311.7" y="-880.42" width="17.41" height="229.61"/>
    <rect class="st1" x="-580.12" y="-641.84" width="552" height="22.38" rx="-298.54" ry="-298.54"/>
  </g>
</svg>