<?xml version="1.0" encoding="UTF-8"?>
<svg id="Layer_1" xmlns="http://www.w3.org/2000/svg" version="1.1" viewBox="0 0 595.28 567.04">
  <!-- Generator: Adobe Illustrator 30.1.0, SVG Export Plug-In . SVG Version: 2.1.1 Build 136)  -->
  <defs>
    <style>
      .st0 {
        fill: #e21f26;
      }

      .st1 {
        fill: #010101;
      }

      .st2 {
        fill: #e22228;
      }

      .st3 {
        fill: #f7f8f8;
      }

      .st4 {
        fill: #fff;
      }

      .st5 {
        fill: none;
        stroke: #000;
        stroke-miterlimit: 10;
        stroke-width: 8px;
      }
    </style>
  </defs>
  <g>
    <polygon class="st0" points="-332.06 234.19 -496.11 208.19 -496.11 148.74 -332.06 148.74 -332.06 234.19"/>
    <rect class="st0" x="-418.07" y="92.17" width="7.87" height="42.4"/>
    <rect x="-539.36" y="138.63" width="249.44" height="10.11" rx="-20.24" ry="-20.24"/>
    <rect x="-419.85" y="-117.32" width="10.94" height="397.76" transform="translate(-332.82 495.94) rotate(90)"/>
    <rect x="-260.4" y="76.09" width="23.51" height="496.66" transform="translate(-497.3 648.83) rotate(-180)"/>
    <rect x="-591.86" y="76.09" width="23.51" height="496.66" transform="translate(-1160.22 648.83) rotate(-180)"/>
    <circle cx="-414.94" cy="506.01" r="15.21"/>
    <path d="M-580.12,475.16v61.7H-248.66v-61.7h-331.46ZM-414.95,532.17c-14.38,0-26.03-11.65-26.03-26.03s11.65-26.03,26.03-26.03,26.03,11.65,26.03,26.03-11.66,26.03-26.03,26.03Z"/>
    <path class="st5" d="M-446.45,592.09l1.2,6.27,4.73,24.6h.01c.98,5.25,3.54,9.94,7.16,13.56,4.71,4.72,11.22,7.63,18.41,7.63s13.7-2.91,18.41-7.63c3.62-3.62,6.18-8.31,7.16-13.56h.01l4.73-24.6,1.2-6.27"/>
    <ellipse class="st5" cx="-414.94" cy="593.15" rx="31.51" ry="8.27"/>
    <rect x="-568.36" y="468.04" width="307.95" height="7.12"/>
    <rect x="-568.36" y="536.86" width="307.95" height="7.12"/>
  </g>
  <g>
    <rect class="st2" x="1329.11" y="-464.86" width="151.89" height="146.47"/>
    <rect class="st2" x="1730.87" y="-464.86" width="151.89" height="146.47"/>
    <rect class="st2" x="1730.87" y="-86.22" width="151.89" height="146.47"/>
    <rect class="st2" x="1329.11" y="-86.22" width="151.89" height="146.47"/>
    <path class="st1" d="M1400.85-291.54V-113.14h23.21v-178.4h-23.21ZM1785.7-291.54V-113.14h23.21v-178.4h-23.21ZM1510.56-1.38h188.08v-23.21h-188.08V-1.38ZM1514.47-403.24v23.21h180.29v-23.21h-180.29Z"/>
    <path class="st1" d="M1712.03-113.14h-13.39v19.33l-64.65-63.59,1.33-1.36c5.27-3.71,9.81-8.32,13.43-13.66.03-.03.07-.07.07-.1l1.43-1.43,61.8,60.8Z"/>
    <path class="st1" d="M1575.77-247.18c-6.6,4.21-12.17,9.85-16.31,16.48l-61.83-60.84h16.84v-15.98l61.3,60.34Z"/>
    <path class="st1" d="M1712.13-291.54l-61.9,60.9-1.29-1.33c-3.71-5.57-8.42-10.38-13.92-14.16l-1.03-1.06,60.77-59.81v15.45h17.37Z"/>
    <path class="st1" d="M1510.56-93.25v-19.89h-12.83l61.77-60.77c4.08,6.53,9.58,12.1,16.05,16.28l.23.23-65.21,64.15Z"/>
    <circle class="st1" cx="1604.61" cy="-202.34" r="28.3"/>
    <polygon class="st4" points="1346.2 47.58 1342.89 47.58 1342.89 -72.28 1462.74 -72.28 1462.74 -68.97 1346.2 -68.97 1346.2 47.58"/>
    <polygon class="st4" points="1346.2 -332.54 1342.89 -332.54 1342.89 -452.39 1462.74 -452.39 1462.74 -449.08 1346.2 -449.08 1346.2 -332.54"/>
    <polygon class="st4" points="1751.47 47.58 1748.15 47.58 1748.15 -72.28 1868.01 -72.28 1868.01 -68.97 1751.47 -68.97 1751.47 47.58"/>
    <polygon class="st4" points="1749.37 -332.53 1746.06 -332.53 1746.06 -452.38 1865.91 -452.38 1865.91 -449.07 1749.37 -449.07 1749.37 -332.53"/>
  </g>
  <path class="st2" d="M549.52,183.91c7.37,1.52,14.58-3.23,16.1-10.6h0c1.52-7.37-3.23-14.58-10.6-16.1l-52.72-10.86c-2.35-.48-3.87-2.79-3.38-5.14l8.44-40.98c1.52-7.37-3.23-14.58-10.6-16.1l-.26-.05c-7.37-1.52-14.58,3.23-16.1,10.6l-8.44,40.98c-.48,2.35-2.79,3.87-5.14,3.38l-115.99-23.89c-2.35-.48-3.87-2.79-3.38-5.14l8.44-40.98c1.52-7.37-3.23-14.58-10.6-16.1l-.26-.05c-7.37-1.52-14.58,3.23-16.1,10.6l-8.44,40.98c-.48,2.35-2.79,3.87-5.14,3.38l-128.35-26.44c-2.35-.48-3.87-2.79-3.38-5.14l8.44-40.98c1.52-7.37-3.23-14.58-10.6-16.1l-.26-.05c-7.37-1.52-14.58,3.23-16.1,10.6l-8.44,40.98c-.48,2.35-2.79,3.87-5.14,3.38l-38.4-7.91c-7.37-1.52-14.58,3.23-16.1,10.6h0c-1.52,7.37,3.23,14.58,10.6,16.1l38.4,7.91c2.35.48,3.87,2.79,3.38,5.14l-26.16,127.02c-.48,2.35-2.79,3.87-5.14,3.38l-38.4-7.91c-7.37-1.52-14.58,3.23-16.1,10.6h0c-1.52,7.37,3.23,14.58,10.6,16.1l38.4,7.91c2.35.48,3.87,2.79,3.38,5.14l-26.16,127.02c-.48,2.35-2.79,3.87-5.14,3.38l-38.4-7.91c-7.37-1.52-14.58,3.23-16.1,10.6h0c-1.52,7.37,3.23,14.58,10.6,16.1l38.4,7.91c2.35.48,3.87,2.79,3.38,5.14l-8.1,39.31c-1.52,7.37,3.23,14.58,10.6,16.1l.26.05c7.37,1.52,14.58-3.23,16.1-10.6l8.1-39.31c.48-2.35,2.79-3.87,5.14-3.38l128.35,26.44c2.35.48,3.87,2.79,3.38,5.14l-8.1,39.31c-1.52,7.37,3.23,14.58,10.6,16.1l.26.05c7.37,1.52,14.58-3.23,16.1-10.6l8.1-39.31c.48-2.35,2.79-3.87,5.14-3.38l115.99,23.89c2.35.48,3.87,2.79,3.38,5.14l-8.1,39.31c-1.52,7.37,3.23,14.58,10.6,16.1l.26.05c7.37,1.52,14.58-3.23,16.1-10.6l8.1-39.31c.48-2.35,2.79-3.87,5.14-3.38l52.72,10.86c7.37,1.52,14.58-3.23,16.1-10.6h0c1.52-7.37-3.23-14.58-10.6-16.1l-52.72-10.86c-2.35-.48-3.87-2.79-3.38-5.14l26.16-127.02c.48-2.35,2.79-3.87,5.14-3.38l52.72,10.86c7.37,1.52,14.58-3.23,16.1-10.6h0c1.52-7.37-3.23-14.58-10.6-16.1l-52.72-10.86c-2.35-.48-3.87-2.79-3.38-5.14l26.16-127.02c.48-2.35,2.79-3.87,5.14-3.38l52.72,10.86ZM181.5,108.1l128.35,26.44c2.35.48,3.87,2.79,3.38,5.14l-26.16,127.02c-.48,2.35-2.79,3.87-5.14,3.38l-128.35-26.44c-2.35-.48-3.87-2.79-3.38-5.14l26.16-127.02c.48-2.35,2.79-3.87,5.14-3.38ZM116.78,400.73l26.16-127.02c.48-2.35,2.79-3.87,5.14-3.38l128.35,26.44c2.35.48,3.87,2.79,3.38,5.14l-26.16,127.02c-.48,2.35-2.79,3.87-5.14,3.38l-128.35-26.44c-2.35-.48-3.87-2.79-3.38-5.14ZM399.99,463.51l-115.99-23.89c-2.35-.48-3.87-2.79-3.38-5.14l26.16-127.02c.48-2.35,2.79-3.87,5.14-3.38l115.99,23.89c2.35.48,3.87,2.79,3.38,5.14l-26.16,127.02c-.48,2.35-2.79,3.87-5.14,3.38ZM433.4,301.28l-115.99-23.89c-2.35-.48-3.87-2.79-3.38-5.14l26.16-127.02c.48-2.35,2.79-3.87,5.14-3.38l115.99,23.89c2.35.48,3.87,2.79,3.38,5.14l-26.16,127.02c-.48,2.35-2.79,3.87-5.14,3.38Z"/>
  <path class="st1" d="M507.2,319.35c1.75.36,3.46-.77,3.82-2.51.36-1.75-.77-3.46-2.51-3.82l-64.85-13.36,32.11-155.9,64.85,13.36c1.75.36,3.46-.77,3.82-2.52.36-1.75-.77-3.46-2.51-3.82l-64.85-13.36,11.43-55.51c.36-1.75-.77-3.46-2.52-3.82-1.75-.36-3.46.77-3.82,2.51l-11.43,55.51-146.56-30.19,11.43-55.51c.36-1.75-.77-3.46-2.51-3.82h0c-1.75-.36-3.46.77-3.82,2.51l-11.43,55.51-155.9-32.11,11.43-55.51c.36-1.75-.77-3.46-2.51-3.82-1.75-.36-3.46.77-3.82,2.51l-11.43,55.51-55.51-11.43c-1.75-.36-3.46.77-3.82,2.51-.36,1.75.77,3.46,2.51,3.82l55.51,11.43-32.11,155.9-55.51-11.43c-1.75-.36-3.46.77-3.82,2.51-.36,1.75.77,3.46,2.52,3.82l55.51,11.43-32.11,155.9-55.51-11.43c-1.75-.36-3.46.77-3.82,2.51-.36,1.75.77,3.46,2.51,3.82l55.51,11.43-11.43,55.51c-.36,1.75.77,3.46,2.51,3.82s3.46-.77,3.82-2.51l11.43-55.51,155.9,32.11-11.43,55.51c-.36,1.75.77,3.46,2.51,3.82,1.75.36,3.46-.77,3.82-2.51l11.43-55.51,146.56,30.19-11.43,55.51c-.36,1.75.77,3.46,2.51,3.82,1.75.36,3.46-.77,3.82-2.51l11.43-55.51,64.85,13.36c1.75.36,3.46-.77,3.82-2.52.36-1.75-.77-3.46-2.51-3.82l-64.85-13.36,32.11-155.9,64.85,13.36ZM469.44,142.46l-32.11,155.9-146.56-30.19,32.11-155.9,146.56,30.19ZM160.64,78.85l155.9,32.11-32.11,155.9-155.9-32.11,32.11-155.9ZM95.11,396.98l32.11-155.9,155.9,32.11-32.11,155.9-155.9-32.11ZM403.91,460.59l-146.56-30.19,32.11-155.9,146.56,30.19-32.11,155.9Z"/>
  <path class="st3" d="M503.38,312.51c1.75.36,3.46-.77,3.82-2.51.36-1.75-.77-3.46-2.51-3.82l-64.85-13.36,32.11-155.9,64.85,13.36c1.75.36,3.46-.77,3.82-2.52.36-1.75-.77-3.46-2.51-3.82l-64.85-13.36,11.43-55.51c.36-1.75-.77-3.46-2.52-3.82-1.75-.36-3.46.77-3.82,2.51l-11.43,55.51-146.56-30.19,11.43-55.51c.36-1.75-.77-3.46-2.51-3.82h0c-1.75-.36-3.46.77-3.82,2.51l-11.43,55.51-155.9-32.11,11.43-55.51c.36-1.75-.77-3.46-2.51-3.82-1.75-.36-3.46.77-3.82,2.51l-11.43,55.51-55.51-11.43c-1.75-.36-3.46.77-3.82,2.51-.36,1.75.77,3.46,2.51,3.82l55.51,11.43-32.11,155.9-55.51-11.43c-1.75-.36-3.46.77-3.82,2.51-.36,1.75.77,3.46,2.52,3.82l55.51,11.43-32.11,155.9-55.51-11.43c-1.75-.36-3.46.77-3.82,2.51-.36,1.75.77,3.46,2.51,3.82l55.51,11.43-11.43,55.51c-.36,1.75.77,3.46,2.51,3.82,1.75.36,3.46-.77,3.82-2.51l11.43-55.51,155.9,32.11-11.43,55.51c-.36,1.75.77,3.46,2.51,3.82,1.75.36,3.46-.77,3.82-2.51l11.43-55.51,146.56,30.19-11.43,55.51c-.36,1.75.77,3.46,2.51,3.82s3.46-.77,3.82-2.51l11.43-55.51,64.85,13.36c1.75.36,3.46-.77,3.82-2.52.36-1.75-.77-3.46-2.51-3.82l-64.85-13.36,32.11-155.9,64.85,13.36ZM465.62,135.62l-32.11,155.9-146.56-30.19,32.11-155.9,146.56,30.19ZM156.82,72.01l155.9,32.11-32.11,155.9-155.9-32.11,32.11-155.9ZM91.29,390.14l32.11-155.9,155.9,32.11-32.11,155.9-155.9-32.11ZM400.09,453.75l-146.56-30.19,32.11-155.9,146.56,30.19-32.11,155.9Z"/>
  <rect class="st1" x="138.73" y="174.99" width="116.63" height="4.28" transform="translate(-16.1 334.51) rotate(-78.39)"/>
  <rect class="st1" x="142.84" y="175.83" width="116.63" height="4.28" transform="translate(-13.64 339.21) rotate(-78.39)"/>
  <rect class="st1" x="183.71" y="184.24" width="116.63" height="4.28" transform="translate(10.67 385.84) rotate(-78.37)"/>
  <rect class="st1" x="187.82" y="185.08" width="116.63" height="4.28" transform="translate(13.22 390.66) rotate(-78.39)"/>
  <rect class="st1" x="162.17" y="179.81" width="116.63" height="4.28" transform="translate(-2.1 361.31) rotate(-78.39)"/>
  <rect class="st1" x="166.28" y="180.65" width="116.63" height="4.28" transform="translate(.35 366.02) rotate(-78.39)"/>
  <rect class="st1" x="205.5" y="188.72" width="116.63" height="4.28" transform="translate(23.78 410.88) rotate(-78.39)"/>
  <rect class="st1" x="209.61" y="189.56" width="116.63" height="4.28" transform="translate(26.24 415.58) rotate(-78.39)"/>
  <rect class="st1" x="293.43" y="206.81" width="116.63" height="4.28" transform="translate(76.3 511.46) rotate(-78.39)"/>
  <rect class="st1" x="297.54" y="207.65" width="116.63" height="4.28" transform="translate(78.76 516.17) rotate(-78.39)"/>
  <rect class="st1" x="338.41" y="216.06" width="116.63" height="4.28" transform="translate(103.17 562.91) rotate(-78.39)"/>
  <rect class="st1" x="342.52" y="216.9" width="116.63" height="4.28" transform="translate(105.63 567.61) rotate(-78.39)"/>
  <rect class="st1" x="316.87" y="211.63" width="116.63" height="4.28" transform="translate(90.3 538.27) rotate(-78.39)"/>
  <rect class="st1" x="320.98" y="212.47" width="116.63" height="4.28" transform="translate(92.76 542.97) rotate(-78.39)"/>
  <rect class="st1" x="360.2" y="220.54" width="116.63" height="4.28" transform="translate(116.19 587.84) rotate(-78.39)"/>
  <rect class="st1" x="364.31" y="221.39" width="116.63" height="4.28" transform="translate(118.64 592.54) rotate(-78.39)"/>
  <rect class="st1" x="257.99" y="370.44" width="116.63" height="4.28" transform="translate(-112.29 607.46) rotate(-78.39)"/>
  <rect class="st1" x="262.1" y="371.28" width="116.63" height="4.28" transform="translate(-109.83 612.16) rotate(-78.39)"/>
  <rect class="st1" x="302.97" y="379.69" width="116.63" height="4.28" transform="translate(-85.42 658.9) rotate(-78.39)"/>
  <rect class="st1" x="307.08" y="380.53" width="116.63" height="4.28" transform="translate(-82.97 663.6) rotate(-78.39)"/>
  <rect class="st1" x="281.42" y="375.26" width="116.63" height="4.28" transform="translate(-98.29 634.26) rotate(-78.39)"/>
  <rect class="st1" x="285.54" y="376.1" width="116.63" height="4.28" transform="translate(-95.84 638.96) rotate(-78.39)"/>
  <rect class="st1" x="324.76" y="384.17" width="116.63" height="4.28" transform="translate(-72.41 683.83) rotate(-78.39)"/>
  <rect class="st1" x="328.87" y="385.02" width="116.63" height="4.28" transform="translate(-69.95 688.54) rotate(-78.39)"/>
  <rect class="st1" x="101.08" y="339.95" width="116.63" height="4.28" transform="translate(-207.77 429.4) rotate(-78.39)"/>
  <rect class="st1" x="105.19" y="340.8" width="116.63" height="4.28" transform="translate(-205.31 434.1) rotate(-78.39)"/>
  <rect class="st1" x="146.05" y="349.2" width="116.63" height="4.28" transform="translate(-180.91 480.85) rotate(-78.39)"/>
  <rect class="st1" x="150.16" y="350.05" width="116.63" height="4.28" transform="translate(-178.45 485.55) rotate(-78.39)"/>
  <rect class="st1" x="124.51" y="344.77" width="116.63" height="4.28" transform="translate(-193.77 456.2) rotate(-78.39)"/>
  <rect class="st1" x="128.62" y="345.62" width="116.63" height="4.28" transform="translate(-191.32 460.91) rotate(-78.39)"/>
  <rect class="st1" x="167.85" y="353.68" width="116.63" height="4.28" transform="translate(-167.89 505.78) rotate(-78.39)"/>
  <rect class="st1" x="171.96" y="354.53" width="116.63" height="4.28" transform="translate(-165.43 510.48) rotate(-78.39)"/>
  <rect class="st1" x="358.15" y="294.28" width="4.28" height="99.83" transform="translate(-51.37 624.94) rotate(-77.98)"/>
  <rect class="st1" x="357.33" y="298.4" width="4.28" height="99.83" transform="translate(-56.04 627.42) rotate(-77.99)"/>
  <rect class="st1" x="349.16" y="339.3" width="4.28" height="99.83" transform="translate(-102.51 651.82) rotate(-77.99)"/>
  <rect class="st1" x="348.34" y="343.41" width="4.28" height="99.83" transform="translate(-107.18 654.27) rotate(-77.99)"/>
  <rect class="st1" x="353.47" y="317.74" width="4.28" height="99.83" transform="translate(-78.01 638.96) rotate(-77.99)"/>
  <rect class="st1" x="352.65" y="321.85" width="4.28" height="99.83" transform="translate(-82.68 641.41) rotate(-77.99)"/>
  <rect class="st1" x="344.81" y="361.12" width="4.28" height="99.83" transform="translate(-127.29 664.83) rotate(-77.99)"/>
  <rect class="st1" x="343.99" y="365.23" width="4.28" height="99.83" transform="translate(-131.97 667.29) rotate(-77.99)"/>
  <rect class="st1" x="391.87" y="130.79" width="4.28" height="99.83" transform="translate(135.25 528.48) rotate(-77.99)"/>
  <rect class="st1" x="391.05" y="134.91" width="4.28" height="99.83" transform="translate(130.57 530.93) rotate(-77.99)"/>
  <rect class="st1" x="382.88" y="175.81" width="4.28" height="99.83" transform="translate(84.1 555.33) rotate(-77.99)"/>
  <rect class="st1" x="382.06" y="179.92" width="4.28" height="99.83" transform="translate(79.42 557.78) rotate(-77.99)"/>
  <rect class="st1" x="387.18" y="154.25" width="4.28" height="99.83" transform="translate(108.6 542.47) rotate(-77.99)"/>
  <rect class="st1" x="386.36" y="158.36" width="4.28" height="99.83" transform="translate(103.92 544.92) rotate(-77.99)"/>
  <rect class="st1" x="378.53" y="197.62" width="4.28" height="99.83" transform="translate(59.32 568.35) rotate(-77.99)"/>
  <rect class="st1" x="377.7" y="201.74" width="4.28" height="99.83" transform="translate(54.63 570.8) rotate(-77.99)"/>
  <rect class="st1" x="237.17" y="99.43" width="4.28" height="99.83" transform="translate(43.42 352.33) rotate(-77.99)"/>
  <rect class="st1" x="236.35" y="103.55" width="4.28" height="99.83" transform="translate(38.74 354.78) rotate(-77.99)"/>
  <rect class="st1" x="228.18" y="144.45" width="4.28" height="99.83" transform="translate(-7.73 379.19) rotate(-77.99)"/>
  <rect class="st1" x="227.36" y="148.57" width="4.28" height="99.83" transform="translate(-12.41 381.64) rotate(-77.99)"/>
  <rect class="st1" x="232.49" y="122.89" width="4.28" height="99.83" transform="translate(16.77 366.32) rotate(-77.99)"/>
  <rect class="st1" x="231.67" y="127" width="4.28" height="99.83" transform="translate(12.1 368.78) rotate(-77.99)"/>
  <rect class="st1" x="223.83" y="166.27" width="4.28" height="99.83" transform="translate(-32.52 392.2) rotate(-77.99)"/>
  <rect class="st1" x="223.01" y="170.38" width="4.28" height="99.83" transform="translate(-37.19 394.66) rotate(-77.99)"/>
  <rect class="st1" x="199.51" y="263.94" width="4.28" height="99.83" transform="translate(-147.3 445.77) rotate(-77.99)"/>
  <rect class="st1" x="198.69" y="268.05" width="4.28" height="99.83" transform="translate(-151.97 448.22) rotate(-77.99)"/>
  <rect class="st1" x="190.53" y="308.95" width="4.28" height="99.83" transform="translate(-198.44 472.63) rotate(-77.99)"/>
  <rect class="st1" x="189.71" y="313.07" width="4.28" height="99.83" transform="translate(-203.12 475.06) rotate(-77.98)"/>
  <rect class="st1" x="194.83" y="287.39" width="4.28" height="99.83" transform="translate(-173.95 459.76) rotate(-77.99)"/>
  <rect class="st1" x="194.01" y="291.51" width="4.28" height="99.83" transform="translate(-178.62 462.22) rotate(-77.99)"/>
  <rect class="st1" x="186.17" y="330.77" width="4.28" height="99.83" transform="translate(-223.23 485.64) rotate(-77.99)"/>
  <rect class="st1" x="185.35" y="334.88" width="4.28" height="99.83" transform="translate(-227.9 488.09) rotate(-77.99)"/>
  <g>
    <path class="st2" d="M-1101.51-273.39h-413.84c-17.58,0-31.83,14.25-31.83,31.83v31.83h477.51v-31.83c0-17.58-14.25-31.83-31.83-31.83Z"/>
    <path class="st1" d="M-1467.6-337.06c-17.58,0-31.83,14.25-31.83,31.83h382.01c0-17.58-14.25-31.83-31.83-31.83h-318.34Z"/>
    <path class="st2" d="M-1340.26-671.32c-11.46,79.59-80.54,143.25-118.42,173.34-30.72,23.88-24.83,55.07-24.83,97.25,13.18,6.54,23.28,17.96,28.17,31.83h293.83c9.71-27.7,31.83-33.27,72.74-54.12l-66.37-26.58c-8.18-3.25-12.17-12.52-8.91-20.69,3.25-8.18,12.52-12.17,20.69-8.91l73.7,29.29-1.91-30.4-83.56-33.43c-8.18-3.25-12.17-12.52-8.91-20.69,3.25-8.18,12.52-12.17,20.69-8.91h0l70.51,28.33-1.27-28.97-81.02-31.83c-8.18-3.25-12.17-12.52-8.91-20.69,3.25-8.18,12.52-12.17,20.69-8.91l67.81,27.06-1.11-29.76-78.47-31.83c-8.18-3.25-12.17-12.52-8.91-20.69,3.25-8.18,12.52-12.17,20.69-8.91l65.26,26.1c-.14-10.12-.88-20.22-2.23-30.24l-74.81-29.92c-8.18-3.25-12.17-12.52-8.91-20.69,3.25-8.18,12.52-12.17,20.69-8.91l54.28,21.65c-24.93-78.1-90.92-136.08-171.59-150.73-25.89-39.52-65.64-67.91-111.42-79.59l15.92,79.59c-57.02.05-107.63,36.51-125.74,90.57-2.23,7,7.64-4.3-65.26,68.6l47.75,63.67,159.17-31.83ZM-1399.32-794.04c6.19-6.24,16.27-6.28,22.51-.09,3.04,3.01,4.73,7.12,4.71,11.39,0,8.79-7.13,15.92-15.92,15.92-8.79.05-15.96-7.03-16.01-15.82-.02-4.28,1.67-8.38,4.71-11.39Z"/>
  </g>
  <g>
    <polygon class="st2" points="-121.36 -430.37 -484.39 -487.91 -484.39 -619.46 -121.36 -619.46 -121.36 -430.37"/>
    <rect class="st2" x="-311.7" y="-880.42" width="17.41" height="229.61"/>
    <rect class="st1" x="-580.12" y="-641.84" width="552" height="22.38" rx="-298.54" ry="-298.54"/>
  </g>
</svg>