<?xml version="1.0" encoding="UTF-8"?>
<svg id="Layer_1" xmlns="http://www.w3.org/2000/svg" version="1.1" viewBox="0 0 595.28 567.04">
  <!-- Generator: Adobe Illustrator 30.1.0, SVG Export Plug-In . SVG Version: 2.1.1 Build 136)  -->
  <defs>
    <style>
      .st0 {
        fill: #e21f26;
      }

      .st1 {
        fill: #010101;
      }

      .st2 {
        fill: #e22228;
      }

      .st3 {
        fill: #f7f8f8;
      }

      .st4 {
        fill: #fff;
      }

      .st5 {
        fill: none;
        stroke: #000;
        stroke-miterlimit: 10;
        stroke-width: 8px;
      }

      .st6 {
        fill: #231f20;
        font-family: TradeGothicNextLTPro-HvCn, 'Trade Gothic Next LT Pro';
        font-size: 77.74px;
      }
    </style>
  </defs>
  <g>
    <polygon class="st0" points="-332.06 234.19 -496.11 208.19 -496.11 148.74 -332.06 148.74 -332.06 234.19"/>
    <rect class="st0" x="-418.07" y="92.17" width="7.87" height="42.4"/>
    <rect x="-539.36" y="138.63" width="249.44" height="10.11" rx="-20.24" ry="-20.24"/>
    <rect x="-419.85" y="-117.32" width="10.94" height="397.76" transform="translate(-332.82 495.94) rotate(90)"/>
    <rect x="-260.4" y="76.09" width="23.51" height="496.66" transform="translate(-497.3 648.83) rotate(-180)"/>
    <rect x="-591.86" y="76.09" width="23.51" height="496.66" transform="translate(-1160.22 648.83) rotate(-180)"/>
    <circle cx="-414.94" cy="506.01" r="15.21"/>
    <path d="M-580.12,475.16v61.7H-248.66v-61.7h-331.46ZM-414.95,532.17c-14.38,0-26.03-11.65-26.03-26.03s11.65-26.03,26.03-26.03,26.03,11.65,26.03,26.03-11.66,26.03-26.03,26.03Z"/>
    <path class="st5" d="M-446.45,592.09l1.2,6.27,4.73,24.6h.01c.98,5.25,3.54,9.94,7.16,13.56,4.71,4.72,11.22,7.63,18.41,7.63s13.7-2.91,18.41-7.63c3.62-3.62,6.18-8.31,7.16-13.56h.01l4.73-24.6,1.2-6.27"/>
    <ellipse class="st5" cx="-414.94" cy="593.15" rx="31.51" ry="8.27"/>
    <rect x="-568.36" y="468.04" width="307.95" height="7.12"/>
    <rect x="-568.36" y="536.86" width="307.95" height="7.12"/>
  </g>
  <g>
    <rect class="st2" x="356.75" y="-1673.5" width="151.89" height="146.47"/>
    <rect class="st2" x="758.51" y="-1673.5" width="151.89" height="146.47"/>
    <rect class="st2" x="758.51" y="-1294.85" width="151.89" height="146.47"/>
    <rect class="st2" x="356.75" y="-1294.85" width="151.89" height="146.47"/>
    <path class="st1" d="M428.49-1500.18v178.4h23.21v-178.4h-23.21ZM813.34-1500.18v178.4h23.21v-178.4h-23.21ZM538.2-1210.02h188.08v-23.21h-188.08v23.21ZM542.11-1611.87v23.21h180.29v-23.21h-180.29Z"/>
    <path class="st1" d="M739.67-1321.78h-13.39v19.33l-64.65-63.59,1.33-1.36c5.27-3.71,9.81-8.32,13.43-13.66.03-.03.07-.07.07-.1l1.43-1.43,61.8,60.8Z"/>
    <path class="st1" d="M603.41-1455.82c-6.6,4.21-12.17,9.85-16.31,16.48l-61.83-60.84h16.84v-15.98l61.3,60.34Z"/>
    <path class="st1" d="M739.77-1500.18l-61.9,60.9-1.29-1.33c-3.71-5.57-8.42-10.38-13.92-14.16l-1.03-1.06,60.77-59.81v15.45h17.37Z"/>
    <path class="st1" d="M538.2-1301.89v-19.89h-12.83l61.77-60.77c4.08,6.53,9.58,12.1,16.05,16.28l.23.23-65.21,64.15Z"/>
    <circle class="st1" cx="632.26" cy="-1410.98" r="28.3"/>
    <polygon class="st4" points="373.84 -1161.06 370.53 -1161.06 370.53 -1280.92 490.38 -1280.92 490.38 -1277.6 373.84 -1277.6 373.84 -1161.06"/>
    <polygon class="st4" points="373.84 -1541.17 370.53 -1541.17 370.53 -1661.03 490.38 -1661.03 490.38 -1657.71 373.84 -1657.71 373.84 -1541.17"/>
    <polygon class="st4" points="779.11 -1161.06 775.79 -1161.06 775.79 -1280.92 895.65 -1280.92 895.65 -1277.6 779.11 -1277.6 779.11 -1161.06"/>
    <polygon class="st4" points="777.01 -1541.16 773.7 -1541.16 773.7 -1661.02 893.55 -1661.02 893.55 -1657.7 777.01 -1657.7 777.01 -1541.16"/>
  </g>
  <path class="st2" d="M2452.84-254.68c22.19,0,40.18-17.56,40.17-39.21h0c0-21.65-18-39.2-40.19-39.19l-158.72.04c-7.09,0-12.83-5.6-12.83-12.51l-.03-120.37c0-21.65-18-39.2-40.19-39.19h-.79c-22.19,0-40.18,17.56-40.17,39.21l.03,120.37c0,6.91-5.74,12.52-12.83,12.52l-349.23.08c-7.09,0-12.83-5.6-12.83-12.51l-.03-120.37c0-21.65-18-39.2-40.19-39.19h-.79c-22.19,0-40.18,17.56-40.17,39.21l.03,120.37c0,6.91-5.74,12.52-12.83,12.52l-386.43.09c-7.09,0-12.83-5.6-12.83-12.51l-.03-120.37c0-21.65-18-39.2-40.19-39.19h-.79c-22.19,0-40.18,17.56-40.17,39.21l.03,120.37c0,6.91-5.74,12.52-12.83,12.52l-115.62.03c-22.19,0-40.18,17.56-40.17,39.21h0c0,21.65,18,39.2,40.19,39.19l115.62-.03c7.09,0,12.83,5.6,12.83,12.51l.09,373.07c0,6.91-5.74,12.52-12.83,12.52l-230.2-4.11c-22.19,0-40.18,17.56-40.17,39.21h0c0,21.65,18,39.2,40.19,39.19l230.2,4.11c7.09,0,12.83,5.6,12.83,12.51l.09,373.07c0,6.91-5.74,12.52-12.83,12.52l-115.62.03c-22.19,0-40.18,17.56-40.17,39.21h0c0,21.65,18,39.2,40.19,39.19l115.62-.03c7.09,0,12.83,5.6,12.83,12.51l-3.97,304.33c0,21.65,18,39.2,40.19,39.19h.79c22.19,0,40.18-17.56,40.17-39.21l3.97-304.33c0-6.91,5.74-12.52,12.83-12.52l386.43-.09c7.09,0,12.83,5.6,12.83,12.51l-13.74,454.39c0,21.65,18,39.2,40.19,39.19h.79c22.19,0,40.18-17.56,40.17-39.21l13.74-454.39c0-6.91,5.74-12.52,12.83-12.52l349.23-.08c7.09,0,12.83,5.6,12.83,12.51l-2.82,316.33c0,21.65,18,39.2,40.19,39.19h.79c22.19,0,40.18-17.56,40.17-39.21l2.82-316.33c0-6.91,5.74-12.52,12.83-12.52l286.2-6.93c22.19,0,40.18-17.56,40.17-39.21h0c0-21.65-18-39.2-40.19-39.19l-286.2,6.93c-7.09,0-12.83-5.6-12.83-12.51l-.09-373.07c0-6.91,5.74-12.52,12.83-12.52l413.42-2.99c22.19,0,40.18-17.56,40.17-39.21h0c0-21.65-18-39.2-40.19-39.19l-413.42,2.99c-7.09,0-12.83-5.6-12.83-12.51l-.09-373.07c0-6.91,5.74-12.52,12.83-12.52l158.72-.04ZM1344.82-254.42l386.43-.09c7.09,0,12.83,5.6,12.83,12.51l.09,373.07c0,6.91-5.74,12.52-12.83,12.52l-386.43.09c-7.09,0-12.83-5.6-12.83-12.51l-.09-373.07c0-6.91,5.74-12.52,12.83-12.52ZM1332.2,607.67l-.09-373.07c0-6.91,5.74-12.52,12.83-12.52l386.43-.09c7.09,0,12.83,5.6,12.83,12.51l.09,373.07c0,6.91-5.74,12.52-12.83,12.52l-386.43.09c-7.09,0-12.83-5.6-12.83-12.51ZM2187.52,619.99l-349.23.08c-7.09,0-12.83-5.6-12.83-12.51l-.09-373.07c0-6.91,5.74-12.52,12.83-12.52l349.23-.08c7.09,0,12.83,5.6,12.83,12.51l.09,373.07c0,6.91-5.74,12.52-12.83,12.52ZM2187.41,143.48l-349.23.08c-7.09,0-12.83-5.6-12.83-12.51l-.09-373.07c0-6.91,5.74-12.52,12.83-12.52l349.23-.08c7.09,0,12.83,5.6,12.83,12.51l.09,373.07c0,6.91-5.74,12.52-12.83,12.52Z"/>
  <path class="st1" d="M2728.57,149.07c5.27,0,9.53-4.17,9.53-9.31,0-5.14-4.27-9.3-9.54-9.3l-512.51,2.49-.11-457.9,195.24-.05c5.27,0,9.53-4.17,9.53-9.31,0-5.14-4.27-9.3-9.54-9.3l-195.24.05-.04-163.05c0-5.14-4.27-9.3-9.54-9.3-5.27,0-9.53,4.17-9.53,9.31l.04,163.05-441.27.1-.04-163.05c0-5.14-4.27-9.3-9.54-9.3h0c-5.27,0-9.53,4.17-9.53,9.31l.04,163.05-469.37.11-.04-163.05c0-5.14-4.27-9.3-9.54-9.3-5.27,0-9.53,4.17-9.53,9.31l.04,163.05-167.14.04c-5.27,0-9.54,4.17-9.53,9.31,0,5.14,4.27,9.3,9.54,9.3l167.14-.04.11,457.9-167.14.04c-5.27,0-9.54,4.17-9.53,9.31,0,5.14,4.27,9.3,9.54,9.3l167.14-.04.11,457.9-167.14.04c-5.27,0-9.54,4.17-9.53,9.31,0,5.14,4.27,9.3,9.54,9.3l167.14-.04.04,163.05c0,5.14,4.27,9.3,9.54,9.3,5.27,0,9.54-4.17,9.53-9.31l-.04-163.05,469.37-.11.04,163.05c0,5.14,4.27,9.3,9.54,9.3,5.27,0,9.53-4.17,9.53-9.31l-.04-163.05,441.27-.1.04,163.05c0,5.14,4.27,9.3,9.54,9.3,5.27,0,9.53-4.17,9.53-9.31l-.04-163.05,504.62-1.24c5.27,0,9.53-4.17,9.53-9.31,0-5.14-4.27-9.3-9.54-9.3l-504.62,1.24-.11-457.9,512.51-2.49ZM2196.87-324.94l.11,457.9-441.27.1-.11-457.9,441.27-.1ZM1267.16-324.72l469.37-.11.11,457.9-469.37.11-.11-457.9ZM1267.39,609.68l-.11-457.9,469.37-.11.11,457.9-469.37.11ZM2197.1,609.46l-441.27.1-.11-457.9,441.27-.1.11,457.9Z"/>
  <path class="st3" d="M2727.3,133.84c5.27,0,9.53-4.17,9.53-9.31,0-5.14-4.27-9.3-9.54-9.3l-526.35.67-.11-457.9,195.24-.05c5.27,0,9.53-4.17,9.53-9.31,0-5.14-4.27-9.3-9.54-9.3l-195.24.05-.04-163.05c0-5.14-4.27-9.3-9.54-9.3-5.27,0-9.53,4.17-9.53,9.31l.04,163.05-441.27.1-.04-163.05c0-5.14-4.27-9.3-9.54-9.3h0c-5.27,0-9.53,4.17-9.53,9.31l.04,163.05-469.37.11-.04-163.05c0-5.14-4.27-9.3-9.54-9.3-5.27,0-9.53,4.17-9.53,9.31l.04,163.05-167.14.04c-5.27,0-9.54,4.17-9.53,9.31,0,5.14,4.27,9.3,9.54,9.3l167.14-.04.11,457.9-167.14.04c-5.27,0-9.54,4.17-9.53,9.31,0,5.14,4.27,9.3,9.54,9.3l167.14-.04.11,457.9-167.14.04c-5.27,0-9.54,4.17-9.53,9.31,0,5.14,4.27,9.3,9.54,9.3l167.14-.04.04,163.05c0,5.14,4.27,9.3,9.54,9.3,5.27,0,9.54-4.17,9.53-9.31l-.04-163.05,469.37-.11.04,163.05c0,5.14,4.27,9.3,9.54,9.3,5.27,0,9.53-4.17,9.53-9.31l-.04-163.05,441.27-.1.04,163.05c0,5.14,4.27,9.3,9.54,9.3,5.27,0,9.53-4.17,9.53-9.31l-.04-163.05,516.4.1c5.27,0,9.53-4.17,9.53-9.31,0-5.14-4.27-9.3-9.54-9.3l-516.4-.1-.11-457.9,526.35-.67ZM2181.76-341.99l.11,457.9-441.27.1-.11-457.9,441.27-.1ZM1252.05-341.77l469.37-.11.11,457.9-469.37.11-.11-457.9ZM1252.29,592.63l-.11-457.9,469.37-.11.11,457.9-469.37.11ZM2182,592.41l-441.27.1-.11-457.9,441.27-.1.11,457.9Z"/>
  <path class="st1" d="M2127.97,281.44l-36.83-.21-.03-51.81h-12.08s-12.32.02-12.32.02l.03,51.65-39.65-.23-.03-51.42h-12.08s0,0,0,0h-12.32s.03,51.27.03,51.27l-38.91-.22-.03-51.01h-12.08s0,0,0,0h-12.32s.03,50.87.03,50.87l-44.47-.26-.03-50.59h-12.08s0,0,0,0h-12.32s.03,50.45.03,50.45l-29.93-.17-.07,11.22h.15s-.07,11-.07,11l29.93.17.02,40.46-29.52-.17-.07,11.22h.15s-.07,10.99-.07,10.99l29.53.17.02,35.4-29.16-.17-.07,11.22h.15s-.07,10.99-.07,10.99l29.17.17.02,36.08-28.78-.16-.07,11.22h.15s-.07,10.99-.07,10.99l28.79.16.03,54.4h12.08s12.32-.02,12.32-.02l-.03-54.24,44.47.25.03,53.97h12.08s0,0,0,0h12.32s-.03-53.82-.03-53.82l38.91.22.03,53.58h12.08s12.32-.02,12.32-.02l-.03-53.42,39.65.23.03,53.18h12.08s0,0,0,0h12.32s-.03-53.04-.03-53.04l37.96.22.07-11.22h-.15s.07-10.99.07-10.99l-37.98-.22-.02-36.08,37.59.22.07-11.22h-.15s.07-10.99.07-10.99l-37.6-.22-.02-35.4,37.22.21.07-11.22h-.15s.07-10.99.07-10.99l-37.24-.21-.02-40.46,36.82.21.07-11.22h-.15s.07-10.99.07-10.99ZM2002.73,365.62l.02,35.4-38.91-.22-.02-35.4,38.91.22ZM2002.71,343.4l-38.91-.22-.02-40.46,38.91.22.02,40.46ZM1939.4,343.04l-44.47-.25-.02-40.46,44.47.25.02,40.46ZM1939.42,365.25l.02,35.4-44.47-.25-.02-35.4,44.47.25ZM1939.45,422.87l.02,36.08-44.47-.25-.02-36.08,44.47.25ZM1963.85,423.01l38.91.22.02,36.08-38.91-.22-.02-36.08ZM2027.16,423.37l39.65.23.02,36.08-39.65-.23-.02-36.08ZM2027.15,401.16l-.02-35.4,39.65.23.02,35.4-39.65-.23ZM2027.11,343.54l-.02-40.46,39.65.23.02,40.46-39.65-.23Z"/>
  <path class="st1" d="M2127.96-156.02l-32.05-.18-.03-53.11h-12.08s-12.32.02-12.32.02l.03,52.95-39.65-.23-.03-52.71h-12.08s-12.32.02-12.32.02l.03,52.55-38.91-.22-.03-52.32h-12.08s0,0,0,0h-12.32s.03,52.17.03,52.17l-44.47-.25-.03-51.89h-12.08s-12.32.02-12.32.02l.03,51.73-34.7-.2-.07,11.22h.15s-.07,10.99-.07,10.99l34.71.2.02,40.46-34.3-.2-.07,11.22h.15s-.07,11-.07,11l34.31.2.02,35.4-33.93-.19-.07,11.22h.15s-.07,10.99-.07,10.99l33.94.19.02,36.08-33.56-.19-.07,11.22h.15s-.07,11-.07,11l33.57.19.03,53.1h12.08s12.32-.02,12.32-.02l-.03-52.94,44.47.26.03,52.67h12.08s12.32-.02,12.32-.02l-.03-52.51,38.91.22.03,52.28h12.08s12.32-.02,12.32-.02l-.03-52.12,39.65.23.03,51.87h12.08s0,0,0,0h12.32s-.03-51.73-.03-51.73l33.18.19.07-11.22h-.15s.07-11,.07-11l-33.19-.19-.02-36.07,32.81.19.07-11.22h-.15s.07-11,.07-11l-32.82-.19-.02-35.4,32.44.19.07-11.22h-.15s.07-11,.07-11l-32.45-.19-.02-40.46,32.04.18.07-11.22h-.15s.07-11,.07-11ZM2007.5-71.82l.02,35.4-38.91-.22-.02-35.4,38.91.22ZM2007.49-94.04l-38.91-.22-.02-40.46,38.91.22.02,40.46ZM1944.18-94.4l-44.47-.25-.02-40.46,44.47.26.02,40.46ZM1944.19-72.18l.02,35.4-44.47-.25-.02-35.4,44.47.25ZM1944.22-14.56l.02,36.08-44.47-.25-.02-36.08,44.47.26ZM1968.62-14.42l38.91.22.02,36.07-38.91-.22-.02-36.08ZM2031.94-14.06l39.65.23.02,36.07-39.65-.23-.02-36.07ZM2031.92-36.28l-.02-35.4,39.65.23.02,35.4-39.65-.23ZM2031.89-93.9l-.02-40.46,39.65.23.02,40.46-39.65-.23Z"/>
  <path class="st1" d="M1663.05,287.53l-32.05-.18-.03-53.11h-12.08s-12.32.02-12.32.02l.03,52.95-39.65-.23-.03-52.72h-12.08s0,0,0,0h-12.32s.03,52.57.03,52.57l-38.91-.22-.03-52.32h-12.08s-12.32.02-12.32.02l.03,52.17-44.47-.25-.03-51.9h-12.08s-12.32.02-12.32.02l.03,51.74-34.7-.2-.07,11.22h.15s-.07,10.99-.07,10.99l34.71.2.02,40.46-34.3-.2-.07,11.22h.15s-.07,10.99-.07,10.99l34.31.2.02,35.4-33.93-.19-.07,11.22h.15s-.07,10.99-.07,10.99l33.94.2.02,36.08-33.56-.19-.07,11.22h.15s-.07,10.99-.07,10.99l33.57.19.03,53.1h12.08s12.32-.02,12.32-.02l-.03-52.95,44.46.25.03,52.68h12.08s12.32-.02,12.32-.02l-.03-52.52,38.91.22.03,52.28h12.08s12.32-.02,12.32-.02l-.03-52.13,39.65.23.03,51.88h12.08s0,0,0,0h12.32s-.03-51.74-.03-51.74l33.19.19.07-11.22h-.15s.07-10.99.07-10.99l-33.2-.19-.02-36.07,32.82.19.07-11.22h-.15s.07-11,.07-11l-32.83-.19-.02-35.4,32.44.19.07-11.22h-.15s.07-10.99.07-10.99l-32.46-.19-.02-40.46,32.04.18.07-11.22h-.15s.07-10.99.07-10.99ZM1542.59,371.73l.02,35.4-38.91-.22-.02-35.4,38.91.22ZM1542.58,349.51l-38.91-.22-.02-40.46,38.91.22.02,40.46ZM1479.26,349.15l-44.47-.25-.02-40.46,44.47.25.02,40.46ZM1479.28,371.36l.02,35.4-44.47-.25-.02-35.4,44.47.25ZM1479.31,428.98l.02,36.08-44.46-.25-.02-36.08,44.47.26ZM1503.71,429.12l38.91.22.02,36.08-38.91-.22-.02-36.08ZM1567.02,429.49l39.65.23.02,36.07-39.65-.23-.02-36.08ZM1567.01,407.27l-.02-35.4,39.65.23.02,35.4-39.65-.23ZM1566.98,349.65l-.02-40.46,39.65.23.02,40.46-39.65-.23Z"/>
  <path class="st1" d="M2591.58-154.71l-32.05-.18-.03-53.11h-12.08s-12.32.02-12.32.02l.03,52.95-39.65-.23-.03-52.72h-12.08s0,0,0,0h-12.32s.03,52.57.03,52.57l-38.91-.22-.03-52.32h-12.08s-12.32.02-12.32.02l.03,52.17-44.47-.25-.03-51.9h-12.08s-12.32.02-12.32.02l.03,51.74-34.7-.2-.07,11.22h.15s-.07,10.99-.07,10.99l34.71.2.02,40.46-34.3-.2-.07,11.22h.15s-.07,10.99-.07,10.99l34.31.2.02,35.4-33.93-.19-.07,11.22h.15s-.07,10.99-.07,10.99l33.94.2.02,36.08-33.56-.19-.07,11.22h.15s-.07,10.99-.07,10.99l33.57.19.03,53.1h12.08s12.32-.02,12.32-.02l-.03-52.95,44.46.25.03,52.68h12.08s12.32-.02,12.32-.02l-.03-52.52,38.91.22.03,52.28h12.08s12.32-.02,12.32-.02l-.03-52.13,39.65.23.03,51.88h12.08s0,0,0,0h12.32s-.03-51.74-.03-51.74l33.19.19.07-11.22h-.15s.07-10.99.07-10.99l-33.2-.19-.02-36.07,32.82.19.07-11.22h-.15s.07-11,.07-11l-32.83-.19-.02-35.4,32.44.19.07-11.22h-.15s.07-10.99.07-10.99l-32.46-.19-.02-40.46,32.04.18.07-11.22h-.15s.07-10.99.07-10.99ZM2471.12-70.52l.02,35.4-38.91-.22-.02-35.4,38.91.22ZM2471.11-92.73l-38.91-.22-.02-40.46,38.91.22.02,40.46ZM2407.79-93.09l-44.47-.25-.02-40.46,44.47.25.02,40.46ZM2407.8-70.88l.02,35.4-44.47-.25-.02-35.4,44.47.25ZM2407.84-13.26l.02,36.08-44.46-.25-.02-36.08,44.47.26ZM2432.24-13.12l38.91.22.02,36.08-38.91-.22-.02-36.08ZM2495.55-12.75l39.65.23.02,36.07-39.65-.23-.02-36.08ZM2495.54-34.97l-.02-35.4,39.65.23.02,35.4-39.65-.23ZM2495.51-92.59l-.02-40.46,39.65.23.02,40.46-39.65-.23Z"/>
  <path class="st1" d="M2593.12,285.4l-32.05-.18-.03-53.11h-12.08s-12.32.02-12.32.02l.03,52.95-39.65-.23-.03-52.72h-12.08s0,0,0,0h-12.32s.03,52.57.03,52.57l-38.91-.22-.03-52.32h-12.08s-12.32.02-12.32.02l.03,52.17-44.47-.25-.03-51.9h-12.08s-12.32.02-12.32.02l.03,51.74-34.7-.2-.07,11.22h.15s-.07,10.99-.07,10.99l34.71.2.02,40.46-34.3-.2-.07,11.22h.15s-.07,10.99-.07,10.99l34.31.2.02,35.4-33.93-.19-.07,11.22h.15s-.07,10.99-.07,10.99l33.94.2.02,36.08-33.56-.19-.07,11.22h.15s-.07,10.99-.07,10.99l33.57.19.03,53.1h12.08s12.32-.02,12.32-.02l-.03-52.95,44.46.25.03,52.68h12.08s12.32-.02,12.32-.02l-.03-52.52,38.91.22.03,52.28h12.08s12.32-.02,12.32-.02l-.03-52.13,39.65.23.03,51.88h12.08s0,0,0,0h12.32s-.03-51.74-.03-51.74l33.19.19.07-11.22h-.15s.07-10.99.07-10.99l-33.2-.19-.02-36.07,32.82.19.07-11.22h-.15s.07-11,.07-11l-32.83-.19-.02-35.4,32.44.19.07-11.22h-.15s.07-10.99.07-10.99l-32.46-.19-.02-40.46,32.04.18.07-11.22h-.15s.07-10.99.07-10.99ZM2472.66,369.6l.02,35.4-38.91-.22-.02-35.4,38.91.22ZM2472.64,347.39l-38.91-.22-.02-40.46,38.91.22.02,40.46ZM2409.33,347.02l-44.47-.25-.02-40.46,44.47.25.02,40.46ZM2409.34,369.24l.02,35.4-44.47-.25-.02-35.4,44.47.25ZM2409.38,426.86l.02,36.08-44.46-.25-.02-36.08,44.47.26ZM2433.78,427l38.91.22.02,36.08-38.91-.22-.02-36.08ZM2497.09,427.36l39.65.23.02,36.07-39.65-.23-.02-36.08ZM2497.08,405.14l-.02-35.4,39.65.23.02,35.4-39.65-.23ZM2497.04,347.53l-.02-40.46,39.65.23.02,40.46-39.65-.23Z"/>
  <path class="st1" d="M2122.99,735.26l-32.05-.18-.03-53.11h-12.08s-12.32.02-12.32.02l.03,52.95-39.65-.23-.03-52.72h-12.08s0,0,0,0h-12.32s.03,52.57.03,52.57l-38.91-.22-.03-52.32h-12.08s-12.32.02-12.32.02l.03,52.17-44.47-.25-.03-51.9h-12.08s-12.32.02-12.32.02l.03,51.74-34.7-.2-.07,11.22h.15s-.07,10.99-.07,10.99l34.71.2.02,40.46-34.3-.2-.07,11.22h.15s-.07,10.99-.07,10.99l34.31.2.02,35.4-33.93-.19-.07,11.22h.15s-.07,10.99-.07,10.99l33.94.2.02,36.08-33.56-.19-.07,11.22h.15s-.07,10.99-.07,10.99l33.57.19.03,53.1h12.08s12.32-.02,12.32-.02l-.03-52.95,44.46.25.03,52.68h12.08s12.32-.02,12.32-.02l-.03-52.52,38.91.22.03,52.28h12.08s12.32-.02,12.32-.02l-.03-52.13,39.65.23.03,51.88h12.08s0,0,0,0h12.32s-.03-51.74-.03-51.74l33.19.19.07-11.22h-.15s.07-10.99.07-10.99l-33.2-.19-.02-36.07,32.82.19.07-11.22h-.15s.07-11,.07-11l-32.83-.19-.02-35.4,32.44.19.07-11.22h-.15s.07-10.99.07-10.99l-32.46-.19-.02-40.46,32.04.18.07-11.22h-.15s.07-10.99.07-10.99ZM2002.53,819.46l.02,35.4-38.91-.22-.02-35.4,38.91.22ZM2002.52,797.25l-38.91-.22-.02-40.46,38.91.22.02,40.46ZM1939.2,796.88l-44.47-.25-.02-40.46,44.47.25.02,40.46ZM1939.22,819.1l.02,35.4-44.47-.25-.02-35.4,44.47.25ZM1939.25,876.71l.02,36.08-44.46-.25-.02-36.08,44.47.26ZM1963.65,876.86l38.91.22.02,36.08-38.91-.22-.02-36.08ZM2026.97,877.22l39.65.23.02,36.07-39.65-.23-.02-36.08ZM2026.95,855l-.02-35.4,39.65.23.02,35.4-39.65-.23ZM2026.92,797.38l-.02-40.46,39.65.23.02,40.46-39.65-.23Z"/>
  <path class="st1" d="M1665.39,739.45l-32.05-.18-.03-53.11h-12.08s-12.32.02-12.32.02l.03,52.95-39.65-.23-.03-52.72h-12.08s0,0,0,0h-12.32s.03,52.57.03,52.57l-38.91-.22-.03-52.32h-12.08s-12.32.02-12.32.02l.03,52.17-44.47-.25-.03-51.9h-12.08s-12.32.02-12.32.02l.03,51.74-34.7-.2-.07,11.22h.15s-.07,10.99-.07,10.99l34.71.2.02,40.46-34.3-.2-.07,11.22h.15s-.07,10.99-.07,10.99l34.31.2.02,35.4-33.93-.19-.07,11.22h.15s-.07,10.99-.07,10.99l33.94.2.02,36.08-33.56-.19-.07,11.22h.15s-.07,10.99-.07,10.99l33.57.19.03,53.1h12.08s12.32-.02,12.32-.02l-.03-52.95,44.46.25.03,52.68h12.08s12.32-.02,12.32-.02l-.03-52.52,38.91.22.03,52.28h12.08s12.32-.02,12.32-.02l-.03-52.13,39.65.23.03,51.88h12.08s0,0,0,0h12.32s-.03-51.74-.03-51.74l33.19.19.07-11.22h-.15s.07-10.99.07-10.99l-33.2-.19-.02-36.07,32.82.19.07-11.22h-.15s.07-11,.07-11l-32.83-.19-.02-35.4,32.44.19.07-11.22h-.15s.07-10.99.07-10.99l-32.46-.19-.02-40.46,32.04.18.07-11.22h-.15s.07-10.99.07-10.99ZM1544.93,823.64l.02,35.4-38.91-.22-.02-35.4,38.91.22ZM1544.91,801.43l-38.91-.22-.02-40.46,38.91.22.02,40.46ZM1481.6,801.07l-44.47-.25-.02-40.46,44.47.25.02,40.46ZM1481.61,823.28l.02,35.4-44.47-.25-.02-35.4,44.47.25ZM1481.65,880.9l.02,36.08-44.46-.25-.02-36.08,44.47.26ZM1506.05,881.04l38.91.22.02,36.08-38.91-.22-.02-36.08ZM1569.36,881.41l39.65.23.02,36.07-39.65-.23-.02-36.08ZM1569.35,859.19l-.02-35.4,39.65.23.02,35.4-39.65-.23ZM1569.31,801.57l-.02-40.46,39.65.23.02,40.46-39.65-.23Z"/>
  <path class="st1" d="M2591.05,731.08l-32.05-.18-.03-53.11h-12.08s-12.32.02-12.32.02l.03,52.95-39.65-.23-.03-52.72h-12.08s0,0,0,0h-12.32s.03,52.57.03,52.57l-38.91-.22-.03-52.32h-12.08s-12.32.02-12.32.02l.03,52.17-44.47-.25-.03-51.9h-12.08s-12.32.02-12.32.02l.03,51.74-34.7-.2-.07,11.22h.15s-.07,10.99-.07,10.99l34.71.2.02,40.46-34.3-.2-.07,11.22h.15s-.07,10.99-.07,10.99l34.31.2.02,35.4-33.93-.19-.07,11.22h.15s-.07,10.99-.07,10.99l33.94.2.02,36.08-33.56-.19-.07,11.22h.15s-.07,10.99-.07,10.99l33.57.19.03,53.1h12.08s12.32-.02,12.32-.02l-.03-52.95,44.46.25.03,52.68h12.08s12.32-.02,12.32-.02l-.03-52.52,38.91.22.03,52.28h12.08s12.32-.02,12.32-.02l-.03-52.13,39.65.23.03,51.88h12.08s0,0,0,0h12.32s-.03-51.74-.03-51.74l33.19.19.07-11.22h-.15s.07-10.99.07-10.99l-33.2-.19-.02-36.07,32.82.19.07-11.22h-.15s.07-11,.07-11l-32.83-.19-.02-35.4,32.44.19.07-11.22h-.15s.07-10.99.07-10.99l-32.46-.19-.02-40.46,32.04.18.07-11.22h-.15s.07-10.99.07-10.99ZM2470.59,815.27l.02,35.4-38.91-.22-.02-35.4,38.91.22ZM2470.58,793.06l-38.91-.22-.02-40.46,38.91.22.02,40.46ZM2407.26,792.7l-44.47-.25-.02-40.46,44.47.25.02,40.46ZM2407.27,814.91l.02,35.4-44.47-.25-.02-35.4,44.47.25ZM2407.31,872.53l.02,36.08-44.46-.25-.02-36.08,44.47.26ZM2431.71,872.67l38.91.22.02,36.08-38.91-.22-.02-36.08ZM2495.02,873.03l39.65.23.02,36.07-39.65-.23-.02-36.08ZM2495.01,850.81l-.02-35.4,39.65.23.02,35.4-39.65-.23ZM2494.98,793.2l-.02-40.46,39.65.23.02,40.46-39.65-.23Z"/>
  <path class="st2" d="M2534.49-322.51c9.25,0,16.74-6.73,16.74-15.02h0c0-8.29-7.5-15.01-16.75-15.01h-66.14c-2.95.02-5.35-2.13-5.35-4.78v-46.1c-.01-8.29-7.51-15.01-16.76-15.01h-.33c-9.25,0-16.74,6.73-16.74,15.02v46.1c.01,2.65-2.38,4.79-5.33,4.8l-145.54.03c-2.95,0-5.35-2.15-5.35-4.79v-46.1c-.01-8.29-7.51-15.01-16.76-15.01h-.33c-9.25,0-16.74,6.73-16.74,15.02v46.1c.01,2.65-2.38,4.79-5.33,4.8l-161.04.04c-2.95,0-5.35-2.15-5.35-4.79v-46.1c-.01-8.29-7.51-15.01-16.76-15.01h-.33c-9.25,0-16.74,6.73-16.74,15.02v46.1c.01,2.65-2.38,4.79-5.33,4.8h-48.18c-9.25.01-16.74,6.74-16.74,15.03h0c0,8.29,7.5,15.01,16.75,15.01h48.18c2.95-.01,5.35,2.13,5.35,4.78l.04,142.88c0,2.65-2.39,4.79-5.35,4.8l-95.93-1.57c-9.25,0-16.74,6.73-16.74,15.02h0c0,8.29,7.5,15.01,16.75,15.01l95.93,1.57c2.95,0,5.35,2.15,5.35,4.79l.04,142.88c0,2.65-2.39,4.79-5.35,4.8h-48.18c-9.25.01-16.74,6.74-16.74,15.03h0c0,8.29,7.5,15.01,16.75,15.01h48.18c2.95-.01,5.35,2.13,5.35,4.78l-1.65,116.55c0,8.29,7.5,15.01,16.75,15.01h.33c9.25,0,16.74-6.73,16.74-15.02l1.65-116.55c0-2.65,2.39-4.79,5.35-4.8l161.04-.04c2.95,0,5.35,2.15,5.35,4.79l-5.72,174.02c0,8.29,7.5,15.01,16.75,15.01h.33c9.25,0,16.74-6.73,16.74-15.02l5.72-174.02c0-2.65,2.39-4.79,5.35-4.8l145.54-.03c2.95,0,5.35,2.15,5.35,4.79l-1.17,121.15c0,8.29,7.5,15.01,16.75,15.01h.33c9.25,0,16.74-6.73,16.74-15.02l1.17-121.15c0-2.65,2.39-4.79,5.35-4.8l119.27-2.65c9.25,0,16.74-6.73,16.74-15.02h0c0-8.29-7.5-15.01-16.75-15.01l-119.27,2.65c-2.95,0-5.35-2.15-5.35-4.79l-.04-142.88c0-2.65,2.39-4.79,5.35-4.8l172.29-1.15c9.25,0,16.74-6.73,16.74-15.02h0c0-8.29-7.5-15.01-16.75-15.01l-172.28,1.15c-2.95,0-5.35-2.15-5.35-4.79l-.04-142.88c0-2.65,2.39-4.79,5.35-4.8h66.14ZM2072.75-322.41l161.04-.04c2.95,0,5.35,2.15,5.35,4.79l.04,142.88c0,2.65-2.39,4.79-5.35,4.8l-161.04.04c-2.95,0-5.35-2.15-5.35-4.79l-.04-142.88c0-2.65,2.39-4.79,5.35-4.8ZM2067.49,7.75l-.04-142.88c0-2.65,2.39-4.79,5.35-4.8l161.04-.04c2.95,0,5.35,2.15,5.35,4.79l.04,142.88c0,2.65-2.39,4.79-5.35,4.8l-161.04.04c-2.95,0-5.35-2.15-5.35-4.79ZM2423.93,12.47l-145.54.03c-2.95,0-5.35-2.15-5.35-4.79l-.04-142.88c0-2.65,2.39-4.79,5.35-4.8l145.54-.03c2.95,0,5.35,2.15,5.35,4.79l.04,142.88c0,2.65-2.39,4.79-5.35,4.8ZM2423.88-170.02l-145.54.03c-2.95,0-5.35-2.15-5.35-4.79l-.04-142.88c0-2.65,2.39-4.79,5.35-4.8l145.54-.03c2.95,0,5.35,2.15,5.35,4.79l.04,142.88c0,2.65-2.39,4.79-5.35,4.8Z"/>
  <path class="st1" d="M2649.4-167.88c2.19,0,3.97-1.6,3.97-3.56,0-1.97-1.78-3.56-3.97-3.56l-213.58.95-.05-175.36,81.36-.02c2.19,0,3.97-1.6,3.97-3.56s-1.78-3.56-3.97-3.56l-81.36.02-.02-62.44c0-1.97-1.78-3.56-3.98-3.56-2.19,0-3.97,1.6-3.97,3.56l.02,62.44-183.89.04-.02-62.44c0-1.97-1.78-3.56-3.97-3.56h0c-2.19,0-3.97,1.6-3.97,3.56l.02,62.44-195.6.04-.02-62.44c0-1.97-1.78-3.56-3.97-3.56-2.19,0-3.97,1.6-3.97,3.56l.02,62.44-69.65.02c-2.19,0-3.97,1.6-3.97,3.56,0,1.97,1.78,3.56,3.98,3.56l69.65-.02.05,175.36-69.65.02c-2.19,0-3.97,1.6-3.97,3.56,0,1.97,1.78,3.56,3.98,3.56l69.65-.02.05,175.36-69.65.02c-2.19,0-3.97,1.6-3.97,3.56,0,1.97,1.78,3.56,3.98,3.56l69.65-.02.02,62.44c0,1.97,1.78,3.56,3.97,3.56,2.19,0,3.97-1.6,3.97-3.56l-.02-62.44,195.6-.04.02,62.44c0,1.97,1.78,3.56,3.97,3.56,2.19,0,3.97-1.6,3.97-3.56l-.02-62.44,183.89-.04.02,62.44c0,1.97,1.78,3.56,3.97,3.56,2.19,0,3.97-1.6,3.97-3.56l-.02-62.44,210.29-.47c2.19,0,3.97-1.6,3.97-3.56,0-1.97-1.78-3.56-3.97-3.56l-210.29.47-.05-175.36,213.58-.95ZM2427.82-349.41l.05,175.36-183.89.04-.05-175.36,183.89-.04ZM2040.38-349.33l195.6-.04.05,175.36-195.6.04-.05-175.36ZM2040.48,8.52l-.05-175.36,195.6-.04.05,175.36-195.6.04ZM2427.92,8.44l-183.89.04-.05-175.36,183.89-.04.05,175.36Z"/>
  <path class="st3" d="M2648.87-173.71c2.19,0,3.97-1.6,3.97-3.56,0-1.97-1.78-3.56-3.97-3.56l-219.34.26-.05-175.36,81.36-.02c2.19,0,3.97-1.6,3.97-3.56,0-1.97-1.78-3.56-3.97-3.56l-81.36.02-.02-62.44c0-1.97-1.78-3.56-3.98-3.56-2.19,0-3.97,1.6-3.97,3.56l.02,62.44-183.89.04-.02-62.44c0-1.97-1.78-3.56-3.97-3.56h0c-2.19,0-3.97,1.6-3.97,3.56l.02,62.44-195.6.04-.02-62.44c0-1.97-1.78-3.56-3.97-3.56-2.19,0-3.97,1.6-3.97,3.56l.02,62.44-69.65.02c-2.19,0-3.97,1.6-3.97,3.56,0,1.97,1.78,3.56,3.98,3.56l69.65-.02.05,175.36-69.65.02c-2.19,0-3.97,1.6-3.97,3.56,0,1.97,1.78,3.56,3.98,3.56l69.65-.02.05,175.36-69.65.02c-2.19,0-3.97,1.6-3.97,3.56,0,1.97,1.78,3.56,3.98,3.56l69.65-.02.02,62.44c0,1.97,1.78,3.56,3.97,3.56,2.19,0,3.97-1.6,3.97-3.56l-.02-62.44,195.6-.04.02,62.44c0,1.97,1.78,3.56,3.97,3.56,2.19,0,3.97-1.6,3.97-3.56l-.02-62.44,183.89-.04.02,62.44c0,1.97,1.78,3.56,3.97,3.56s3.97-1.6,3.97-3.56l-.02-62.44,215.2.04c2.19,0,3.97-1.6,3.97-3.56,0-1.97-1.78-3.56-3.97-3.56l-215.2-.04-.05-175.36,219.34-.26ZM2421.53-355.94l.05,175.36-183.89.04-.05-175.36,183.89-.04ZM2034.09-355.86l195.6-.04.05,175.36-195.6.04-.05-175.36ZM2034.19,1.99l-.05-175.36,195.6-.04.05,175.36-195.6.04ZM2421.62,1.91l-183.89.04-.05-175.36,183.89-.04.05,175.36Z"/>
  <path class="st1" d="M2407.9-109.45l-15.72-.09v-21.78s-5.17,0-5.17,0h-5.26s.01,21.72.01,21.72l-16.93-.1v-21.62s-5.17,0-5.17,0h0s-5.26,0-5.26,0v21.55s-16.6-.09-16.6-.09v-21.45s-5.17,0-5.17,0h0s-5.26,0-5.26,0v21.38s-18.97-.11-18.97-.11v-21.27s-5.17,0-5.17,0h0s-5.26,0-5.26,0v21.2s-12.76-.07-12.76-.07l-.03,4.72h.06s-.03,4.63-.03,4.63l12.78.07v17.01s-12.59-.07-12.59-.07l-.03,4.72h.06s-.03,4.62-.03,4.62l12.61.07v14.88s-12.44-.07-12.44-.07l-.03,4.72h.06s-.03,4.62-.03,4.62l12.45.07v15.17s-12.28-.07-12.28-.07l-.03,4.72h.06s-.03,4.62-.03,4.62l12.29.07V-2.78s5.17,0,5.17,0h5.26s-.01-22.81-.01-22.81l18.98.11V-2.8s5.17,0,5.17,0h0s5.26,0,5.26,0v-22.62s16.6.09,16.6.09V-2.81s5.17,0,5.17,0h5.26s-.01-22.46-.01-22.46l16.93.1V-2.82s5.17,0,5.17,0h0s5.26,0,5.26,0v-22.29s16.19.09,16.19.09l.03-4.72h-.06s.03-4.62.03-4.62l-16.21-.09v-15.17s16.04.09,16.04.09l.03-4.72h-.06s.03-4.62.03-4.62l-16.05-.09v-14.88s15.88.09,15.88.09l.03-4.72h-.06s.03-4.62.03-4.62l-15.89-.09v-17.01s15.71.09,15.71.09l.03-4.72h-.06s.03-4.62.03-4.62ZM2354.43-74.06v14.88s-16.6-.09-16.6-.09v-14.88s16.6.09,16.6.09ZM2354.43-83.4l-16.61-.09v-17.01s16.6.09,16.6.09v17.01ZM2327.4-83.56l-18.98-.11v-17.01s18.97.11,18.97.11v17.01ZM2327.41-74.22v14.88s-18.97-.11-18.97-.11v-14.88s18.97.11,18.97.11ZM2327.42-49.99v15.17s-18.97-.11-18.97-.11v-15.17s18.97.11,18.97.11ZM2337.84-49.94l16.61.09v15.17s-16.6-.09-16.6-.09v-15.17ZM2364.86-49.78l16.93.1v15.17s-16.92-.1-16.92-.1v-15.17ZM2364.86-59.12v-14.88s16.92.1,16.92.1v14.88s-16.92-.1-16.92-.1ZM2364.84-83.34v-17.01s16.92.1,16.92.1v17.01s-16.92-.1-16.92-.1Z"/>
  <path class="st1" d="M2407.89-293.37l-13.68-.08v-22.33s-5.17,0-5.17,0h-5.26s.01,22.26.01,22.26l-16.93-.1v-22.16s-5.17,0-5.17,0h-5.26s.01,22.1.01,22.1l-16.61-.09v-21.99s-5.17,0-5.17,0h0s-5.26,0-5.26,0v21.93s-18.97-.11-18.97-.11v-21.82s-5.17,0-5.17,0h-5.26s.01,21.75.01,21.75l-14.81-.08-.03,4.72h.06s-.03,4.62-.03,4.62l14.82.08v17.01s-14.63-.08-14.63-.08l-.03,4.72h.06s-.03,4.62-.03,4.62l14.65.08v14.88s-14.48-.08-14.48-.08l-.03,4.72h.06s-.03,4.62-.03,4.62l14.49.08v15.17s-14.32-.08-14.32-.08l-.03,4.72h.06s-.03,4.62-.03,4.62l14.33.08v22.32s5.17,0,5.17,0h5.26s-.01-22.26-.01-22.26l18.98.11v22.14s5.17,0,5.17,0h5.26s-.01-22.08-.01-22.08l16.61.09v21.98s5.17,0,5.17,0h5.26s-.01-21.91-.01-21.91l16.93.1v21.81s5.17,0,5.17,0h0s5.26,0,5.26,0v-21.75s14.15.08,14.15.08l.03-4.72h-.06s.03-4.63.03-4.63l-14.17-.08v-15.17s14,.08,14,.08l.03-4.72h-.06s.03-4.62.03-4.62l-14.01-.08v-14.88s13.84.08,13.84.08l.03-4.72h-.06s.03-4.62.03-4.62l-13.85-.08v-17.01s13.67.08,13.67.08l.03-4.72h-.06s.03-4.62.03-4.62ZM2356.47-257.97v14.88s-16.6-.09-16.6-.09v-14.88s16.6.09,16.6.09ZM2356.46-267.31l-16.61-.09v-17.01s16.6.09,16.6.09v17.01ZM2329.44-267.46l-18.98-.11v-17.01s18.97.11,18.97.11v17.01ZM2329.44-258.12v14.88s-18.97-.11-18.97-.11v-14.88s18.97.11,18.97.11ZM2329.46-233.9v15.17s-18.97-.11-18.97-.11v-15.17s18.97.11,18.97.11ZM2339.88-233.84l16.61.09v15.17s-16.6-.09-16.6-.09v-15.17ZM2366.9-233.68l16.93.1v15.17s-16.92-.1-16.92-.1v-15.17ZM2366.9-243.02v-14.88s16.92.1,16.92.1v14.88s-16.92-.1-16.92-.1ZM2366.88-267.25v-17.01s16.92.1,16.92.1v17.01s-16.92-.1-16.92-.1Z"/>
  <path class="st1" d="M2213.92-292.78l-13.8-.08v-22.82s-5.17,0-5.17,0h0s-5.26,0-5.26,0v22.76s-16.91-.1-16.91-.1v-22.66s-5.17,0-5.17,0h-5.26s.01,22.6.01,22.6l-16.61-.09v-22.49s-5.17,0-5.17,0h-5.26s.01,22.43.01,22.43l-18.98-.11v-22.31s-5.17,0-5.17,0h-5.26s.01,22.25.01,22.25l-14.7-.08-.03,4.72h.06s-.03,4.62-.03,4.62l14.7.08v17.01s-14.52-.08-14.52-.08l-.03,4.72h.06s-.03,4.62-.03,4.62l14.53.08v14.88s-14.36-.08-14.36-.08l-.03,4.72h.06s-.03,4.62-.03,4.62l14.38.08v15.17s-14.2-.08-14.2-.08l-.03,4.72h.06s-.03,4.62-.03,4.62l14.22.08v21.83s5.17,0,5.17,0h0s5.26,0,5.26,0v-21.76s18.97.11,18.97.11v21.65s5.17,0,5.17,0h0s5.26,0,5.26,0v-21.58s16.6.09,16.6.09v21.48s5.17,0,5.17,0h0s5.26,0,5.26,0v-21.42s16.91.1,16.91.1v21.31s5.17,0,5.17,0h5.26s-.01-21.25-.01-21.25l14.28.08.03-4.72h-.06s.03-4.62.03-4.62l-14.29-.08v-15.17s14.11.08,14.11.08l.03-4.72h-.06s.03-4.62.03-4.62l-14.13-.08v-14.88s13.96.08,13.96.08l.03-4.72h-.06s.03-4.62.03-4.62l-13.97-.08v-17.01s13.78.08,13.78.08l.03-4.72h-.06s.03-4.62.03-4.62ZM2162.38-257.38v14.88s-16.6-.09-16.6-.09v-14.88s16.6.09,16.6.09ZM2162.38-266.72l-16.61-.09v-17.01s16.6.09,16.6.09v17.01ZM2135.35-266.87l-18.98-.11v-17.01s18.97.11,18.97.11v17.01ZM2135.36-257.53v14.88s-18.97-.11-18.97-.11v-14.88s18.97.11,18.97.11ZM2135.37-233.31v15.17s-18.97-.11-18.97-.11v-15.17s18.97.11,18.97.11ZM2145.79-233.25l16.61.09v15.17s-16.6-.09-16.6-.09v-15.17ZM2172.82-233.1l16.93.1v15.17s-16.92-.1-16.92-.1v-15.17ZM2172.81-242.44v-14.88s16.92.1,16.92.1v14.88s-16.92-.1-16.92-.1ZM2172.8-266.66v-17.01s16.92.1,16.92.1v17.01s-16.92-.1-16.92-.1Z"/>
  <path class="st1" d="M2209.43-106.89l-13.68-.08v-22.33s-5.17,0-5.17,0h-5.26s.01,22.26.01,22.26l-16.93-.1v-22.16s-5.17,0-5.17,0h0s-5.26,0-5.26,0v22.1s-16.6-.09-16.6-.09v-22s-5.17,0-5.17,0h-5.26s.01,21.94.01,21.94l-18.98-.11v-21.82s-5.17,0-5.17,0h-5.26s.01,21.76.01,21.76l-14.81-.08-.03,4.72h.06s-.03,4.62-.03,4.62l14.82.08v17.01s-14.63-.08-14.63-.08l-.03,4.72h.06s-.03,4.62-.03,4.62l14.65.08v14.88s-14.47-.08-14.47-.08l-.03,4.72h.06s-.03,4.62-.03,4.62l14.49.08v15.17s-14.32-.08-14.32-.08l-.03,4.72h.06s-.03,4.62-.03,4.62l14.33.08V-.76s5.17,0,5.17,0h5.26s-.01-22.26-.01-22.26l18.98.11V-.77s5.17,0,5.17,0h5.26s-.01-22.08-.01-22.08l16.61.09V-.78s5.17,0,5.17,0h5.26s-.01-21.92-.01-21.92l16.93.1V-.8s5.17,0,5.17,0h0s5.26,0,5.26,0v-21.75s14.15.08,14.15.08l.03-4.72h-.06s.03-4.62.03-4.62l-14.17-.08v-15.17s14,.08,14,.08l.03-4.72h-.06s.03-4.63.03-4.63l-14.01-.08v-14.88s13.84.08,13.84.08l.03-4.72h-.06s.03-4.62.03-4.62l-13.85-.08v-17.01s13.67.08,13.67.08l.03-4.72h-.06s.03-4.62.03-4.62ZM2158.01-71.5v14.88s-16.6-.09-16.6-.09v-14.88s16.6.09,16.6.09ZM2158.01-80.83l-16.61-.09v-17.01s16.6.09,16.6.09v17.01ZM2130.98-80.99l-18.98-.11v-17.01s18.97.11,18.97.11v17.01ZM2130.99-71.65v14.88s-18.97-.11-18.97-.11v-14.88s18.97.11,18.97.11ZM2131-47.42v15.17s-18.97-.11-18.97-.11v-15.17s18.97.11,18.97.11ZM2141.42-47.37l16.61.09v15.17s-16.6-.09-16.6-.09v-15.17ZM2168.44-47.21l16.93.1v15.17s-16.92-.1-16.92-.1v-15.17ZM2168.44-56.55v-14.88s16.92.1,16.92.1v14.88s-16.92-.1-16.92-.1ZM2168.42-80.78v-17.01s16.92.1,16.92.1v17.01s-16.92-.1-16.92-.1Z"/>
  <path class="st1" d="M2605.8-292.82l-13.68-.08v-22.33s-5.17,0-5.17,0h-5.26s.01,22.26.01,22.26l-16.93-.1v-22.16s-5.17,0-5.17,0h0s-5.26,0-5.26,0v22.1s-16.6-.09-16.6-.09v-22s-5.17,0-5.17,0h-5.26s.01,21.94.01,21.94l-18.98-.11v-21.82s-5.17,0-5.17,0h-5.26s.01,21.76.01,21.76l-14.81-.08-.03,4.72h.06s-.03,4.62-.03,4.62l14.82.08v17.01s-14.63-.08-14.63-.08l-.03,4.72h.06s-.03,4.62-.03,4.62l14.65.08v14.88s-14.47-.08-14.47-.08l-.03,4.72h.06s-.03,4.62-.03,4.62l14.49.08v15.17s-14.32-.08-14.32-.08l-.03,4.72h.06s-.03,4.62-.03,4.62l14.33.08v22.33s5.17,0,5.17,0h5.26s-.01-22.26-.01-22.26l18.98.11v22.15s5.17,0,5.17,0h5.26s-.01-22.08-.01-22.08l16.61.09v21.98s5.17,0,5.17,0h5.26s-.01-21.92-.01-21.92l16.93.1v21.81s5.17,0,5.17,0h0s5.26,0,5.26,0v-21.75s14.15.08,14.15.08l.03-4.72h-.06s.03-4.62.03-4.62l-14.17-.08v-15.17s14,.08,14,.08l.03-4.72h-.06s.03-4.63.03-4.63l-14.01-.08v-14.88s13.84.08,13.84.08l.03-4.72h-.06s.03-4.62.03-4.62l-13.85-.08v-17.01s13.67.08,13.67.08l.03-4.72h-.06s.03-4.62.03-4.62ZM2554.38-257.42v14.88s-16.6-.09-16.6-.09v-14.88s16.6.09,16.6.09ZM2554.37-266.76l-16.61-.09v-17.01s16.6.09,16.6.09v17.01ZM2527.34-266.91l-18.98-.11v-17.01s18.97.11,18.97.11v17.01ZM2527.35-257.57v14.88s-18.97-.11-18.97-.11v-14.88s18.97.11,18.97.11ZM2527.36-233.35v15.17s-18.97-.11-18.97-.11v-15.17s18.97.11,18.97.11ZM2537.78-233.29l16.61.09v15.17s-16.6-.09-16.6-.09v-15.17ZM2564.81-233.14l16.93.1v15.17s-16.92-.1-16.92-.1v-15.17ZM2564.8-242.48v-14.88s16.92.1,16.92.1v14.88s-16.92-.1-16.92-.1ZM2564.79-266.7v-17.01s16.92.1,16.92.1v17.01s-16.92-.1-16.92-.1Z"/>
  <path class="st1" d="M2606.45-107.79l-13.68-.08v-22.33s-5.17,0-5.17,0h-5.26s.01,22.26.01,22.26l-16.93-.1v-22.16s-5.17,0-5.17,0h0s-5.26,0-5.26,0v22.1s-16.6-.09-16.6-.09v-22s-5.17,0-5.17,0h-5.26s.01,21.94.01,21.94l-18.98-.11v-21.82s-5.17,0-5.17,0h-5.26s.01,21.76.01,21.76l-14.81-.08-.03,4.72h.06s-.03,4.62-.03,4.62l14.82.08v17.01s-14.63-.08-14.63-.08l-.03,4.72h.06s-.03,4.62-.03,4.62l14.65.08v14.88s-14.47-.08-14.47-.08l-.03,4.72h.06s-.03,4.62-.03,4.62l14.49.08v15.17s-14.32-.08-14.32-.08l-.03,4.72h.06s-.03,4.62-.03,4.62l14.33.08V-1.65s5.17,0,5.17,0h5.26s-.01-22.26-.01-22.26l18.98.11V-1.67s5.17,0,5.17,0h5.26s-.01-22.08-.01-22.08l16.61.09V-1.68s5.17,0,5.17,0h5.26s-.01-21.92-.01-21.92l16.93.1V-1.69s5.17,0,5.17,0h0s5.26,0,5.26,0v-21.75s14.15.08,14.15.08l.03-4.72h-.06s.03-4.62.03-4.62l-14.17-.08v-15.17s14,.08,14,.08l.03-4.72h-.06s.03-4.63.03-4.63l-14.01-.08v-14.88s13.84.08,13.84.08l.03-4.72h-.06s.03-4.62.03-4.62l-13.85-.08v-17.01s13.67.08,13.67.08l.03-4.72h-.06s.03-4.62.03-4.62ZM2555.03-72.39v14.88s-16.6-.09-16.6-.09v-14.88s16.6.09,16.6.09ZM2555.03-81.73l-16.61-.09v-17.01s16.6.09,16.6.09v17.01ZM2528-81.88l-18.98-.11v-17.01s18.97.11,18.97.11v17.01ZM2528.01-72.54v14.88s-18.97-.11-18.97-.11v-14.88s18.97.11,18.97.11ZM2528.02-48.32v15.17s-18.97-.11-18.97-.11v-15.17s18.97.11,18.97.11ZM2538.44-48.26l16.61.09v15.17s-16.6-.09-16.6-.09v-15.17ZM2565.46-48.11l16.93.1v15.17s-16.92-.1-16.92-.1v-15.17ZM2565.46-57.45v-14.88s16.92.1,16.92.1v14.88s-16.92-.1-16.92-.1ZM2565.44-81.67v-17.01s16.92.1,16.92.1v17.01s-16.92-.1-16.92-.1Z"/>
  <path class="st1" d="M2405.77,81.34l-13.68-.08v-22.33s-5.17,0-5.17,0h-5.26s.01,22.26.01,22.26l-16.93-.1v-22.16s-5.17,0-5.17,0h0s-5.26,0-5.26,0v22.1s-16.6-.09-16.6-.09v-22s-5.17,0-5.17,0h-5.26s.01,21.94.01,21.94l-18.98-.11v-21.82s-5.17,0-5.17,0h-5.26s.01,21.76.01,21.76l-14.81-.08-.03,4.72h.06s-.03,4.62-.03,4.62l14.82.08v17.01s-14.63-.08-14.63-.08l-.03,4.72h.06s-.03,4.62-.03,4.62l14.65.08v14.88s-14.47-.08-14.47-.08l-.03,4.72h.06s-.03,4.62-.03,4.62l14.49.08v15.17s-14.32-.08-14.32-.08l-.03,4.72h.06s-.03,4.62-.03,4.62l14.33.08v22.33s5.17,0,5.17,0h5.26s-.01-22.26-.01-22.26l18.98.11v22.15s5.17,0,5.17,0h5.26s-.01-22.08-.01-22.08l16.61.09v21.98s5.17,0,5.17,0h5.26s-.01-21.92-.01-21.92l16.93.1v21.81s5.17,0,5.17,0h0s5.26,0,5.26,0v-21.75s14.15.08,14.15.08l.03-4.72h-.06s.03-4.62.03-4.62l-14.17-.08v-15.17s14,.08,14,.08l.03-4.72h-.06s.03-4.63.03-4.63l-14.01-.08v-14.88s13.84.08,13.84.08l.03-4.72h-.06s.03-4.62.03-4.62l-13.85-.08v-17.01s13.67.08,13.67.08l.03-4.72h-.06s.03-4.62.03-4.62ZM2354.35,116.74v14.88s-16.6-.09-16.6-.09v-14.88s16.6.09,16.6.09ZM2354.34,107.4l-16.61-.09v-17.01s16.6.09,16.6.09v17.01ZM2327.32,107.24l-18.98-.11v-17.01s18.97.11,18.97.11v17.01ZM2327.32,116.58v14.88s-18.97-.11-18.97-.11v-14.88s18.97.11,18.97.11ZM2327.34,140.81v15.17s-18.97-.11-18.97-.11v-15.17s18.97.11,18.97.11ZM2337.75,140.87l16.61.09v15.17s-16.6-.09-16.6-.09v-15.17ZM2364.78,141.02l16.93.1v15.17s-16.92-.1-16.92-.1v-15.17ZM2364.77,131.68v-14.88s16.92.1,16.92.1v14.88s-16.92-.1-16.92-.1ZM2364.76,107.46v-17.01s16.92.1,16.92.1v17.01s-16.92-.1-16.92-.1Z"/>
  <path class="st1" d="M2210.43,83.1l-13.68-.08v-22.33s-5.17,0-5.17,0h-5.26s.01,22.26.01,22.26l-16.93-.1v-22.16s-5.17,0-5.17,0h0s-5.26,0-5.26,0v22.1s-16.6-.09-16.6-.09v-22s-5.17,0-5.17,0h-5.26s.01,21.94.01,21.94l-18.98-.11v-21.82s-5.17,0-5.17,0h-5.26s.01,21.76.01,21.76l-14.81-.08-.03,4.72h.06s-.03,4.62-.03,4.62l14.82.08v17.01s-14.63-.08-14.63-.08l-.03,4.72h.06s-.03,4.62-.03,4.62l14.65.08v14.88s-14.47-.08-14.47-.08l-.03,4.72h.06s-.03,4.62-.03,4.62l14.49.08v15.17s-14.32-.08-14.32-.08l-.03,4.72h.06s-.03,4.62-.03,4.62l14.33.08v22.33s5.17,0,5.17,0h5.26s-.01-22.26-.01-22.26l18.98.11v22.15s5.17,0,5.17,0h5.26s-.01-22.08-.01-22.08l16.61.09v21.98s5.17,0,5.17,0h5.26s-.01-21.92-.01-21.92l16.93.1v21.81s5.17,0,5.17,0h0s5.26,0,5.26,0v-21.75s14.15.08,14.15.08l.03-4.72h-.06s.03-4.62.03-4.62l-14.17-.08v-15.17s14,.08,14,.08l.03-4.72h-.06s.03-4.63.03-4.63l-14.01-.08v-14.88s13.84.08,13.84.08l.03-4.72h-.06s.03-4.62.03-4.62l-13.85-.08v-17.01s13.67.08,13.67.08l.03-4.72h-.06s.03-4.62.03-4.62ZM2159.01,118.5v14.88s-16.6-.09-16.6-.09v-14.88s16.6.09,16.6.09ZM2159.01,109.16l-16.61-.09v-17.01s16.6.09,16.6.09v17.01ZM2131.98,109l-18.98-.11v-17.01s18.97.11,18.97.11v17.01ZM2131.98,118.34v14.88s-18.97-.11-18.97-.11v-14.88s18.97.11,18.97.11ZM2132,142.57v15.17s-18.97-.11-18.97-.11v-15.17s18.97.11,18.97.11ZM2142.42,142.63l16.61.09v15.17s-16.6-.09-16.6-.09v-15.17ZM2169.44,142.78l16.93.1v15.17s-16.92-.1-16.92-.1v-15.17ZM2169.44,133.44v-14.88s16.92.1,16.92.1v14.88s-16.92-.1-16.92-.1ZM2169.42,109.22v-17.01s16.92.1,16.92.1v17.01s-16.92-.1-16.92-.1Z"/>
  <path class="st1" d="M2605.57,79.58l-13.68-.08v-22.33s-5.17,0-5.17,0h-5.26s.01,22.26.01,22.26l-16.93-.1v-22.16s-5.17,0-5.17,0h0s-5.26,0-5.26,0v22.1s-16.6-.09-16.6-.09v-22s-5.17,0-5.17,0h-5.26s.01,21.94.01,21.94l-18.98-.11v-21.82s-5.17,0-5.17,0h-5.26s.01,21.76.01,21.76l-14.81-.08-.03,4.72h.06s-.03,4.62-.03,4.62l14.82.08v17.01s-14.63-.08-14.63-.08l-.03,4.72h.06s-.03,4.62-.03,4.62l14.65.08v14.88s-14.47-.08-14.47-.08l-.03,4.72h.06s-.03,4.62-.03,4.62l14.49.08v15.17s-14.32-.08-14.32-.08l-.03,4.72h.06s-.03,4.62-.03,4.62l14.33.08v22.33s5.17,0,5.17,0h5.26s-.01-22.26-.01-22.26l18.98.11v22.15s5.17,0,5.17,0h5.26s-.01-22.08-.01-22.08l16.61.09v21.98s5.17,0,5.17,0h5.26s-.01-21.92-.01-21.92l16.93.1v21.81s5.17,0,5.17,0h0s5.26,0,5.26,0v-21.75s14.15.08,14.15.08l.03-4.72h-.06s.03-4.62.03-4.62l-14.17-.08v-15.17s14,.08,14,.08l.03-4.72h-.06s.03-4.63.03-4.63l-14.01-.08v-14.88s13.84.08,13.84.08l.03-4.72h-.06s.03-4.62.03-4.62l-13.85-.08v-17.01s13.67.08,13.67.08l.03-4.72h-.06s.03-4.62.03-4.62ZM2554.15,114.98v14.88s-16.6-.09-16.6-.09v-14.88s16.6.09,16.6.09ZM2554.14,105.64l-16.61-.09v-17.01s16.6.09,16.6.09v17.01ZM2527.12,105.49l-18.98-.11v-17.01s18.97.11,18.97.11v17.01ZM2527.12,114.82v14.88s-18.97-.11-18.97-.11v-14.88s18.97.11,18.97.11ZM2527.14,139.05v15.17s-18.97-.11-18.97-.11v-15.17s18.97.11,18.97.11ZM2537.55,139.11l16.61.09v15.17s-16.6-.09-16.6-.09v-15.17ZM2564.58,139.26l16.93.1v15.17s-16.92-.1-16.92-.1v-15.17ZM2564.57,129.92v-14.88s16.92.1,16.92.1v14.88s-16.92-.1-16.92-.1ZM2564.56,105.7v-17.01s16.92.1,16.92.1v17.01s-16.92-.1-16.92-.1Z"/>
  <g>
    <path class="st2" d="M-1101.51-273.39h-413.84c-17.58,0-31.83,14.25-31.83,31.83v31.83h477.51v-31.83c0-17.58-14.25-31.83-31.83-31.83Z"/>
    <path class="st1" d="M-1467.6-337.06c-17.58,0-31.83,14.25-31.83,31.83h382.01c0-17.58-14.25-31.83-31.83-31.83h-318.34Z"/>
    <path class="st2" d="M-1340.26-671.32c-11.46,79.59-80.54,143.25-118.42,173.34-30.72,23.88-24.83,55.07-24.83,97.25,13.18,6.54,23.28,17.96,28.17,31.83h293.83c9.71-27.7,31.83-33.27,72.74-54.12l-66.37-26.58c-8.18-3.25-12.17-12.52-8.91-20.69,3.25-8.18,12.52-12.17,20.69-8.91l73.7,29.29-1.91-30.4-83.56-33.43c-8.18-3.25-12.17-12.52-8.91-20.69,3.25-8.18,12.52-12.17,20.69-8.91h0l70.51,28.33-1.27-28.97-81.02-31.83c-8.18-3.25-12.17-12.52-8.91-20.69,3.25-8.18,12.52-12.17,20.69-8.91l67.81,27.06-1.11-29.76-78.47-31.83c-8.18-3.25-12.17-12.52-8.91-20.69,3.25-8.18,12.52-12.17,20.69-8.91l65.26,26.1c-.14-10.12-.88-20.22-2.23-30.24l-74.81-29.92c-8.18-3.25-12.17-12.52-8.91-20.69,3.25-8.18,12.52-12.17,20.69-8.91l54.28,21.65c-24.93-78.1-90.92-136.08-171.59-150.73-25.89-39.52-65.64-67.91-111.42-79.59l15.92,79.59c-57.02.05-107.63,36.51-125.74,90.57-2.23,7,7.64-4.3-65.26,68.6l47.75,63.67,159.17-31.83ZM-1399.32-794.04c6.19-6.24,16.27-6.28,22.51-.09,3.04,3.01,4.73,7.12,4.71,11.39,0,8.79-7.13,15.92-15.92,15.92-8.79.05-15.96-7.03-16.01-15.82-.02-4.28,1.67-8.38,4.71-11.39Z"/>
  </g>
  <g>
    <polygon class="st2" points="-121.36 -430.37 -484.39 -487.91 -484.39 -619.46 -121.36 -619.46 -121.36 -430.37"/>
    <rect class="st2" x="-311.7" y="-880.42" width="17.41" height="229.61"/>
    <rect class="st1" x="-580.12" y="-641.84" width="552" height="22.38" rx="-298.54" ry="-298.54"/>
  </g>
  <rect class="st1" x="39.66" y="-124.48" width="6.16" height="693.75"/>
  <rect class="st1" x="549.53" y="-124.48" width="6.16" height="693.75"/>
  <rect class="st1" x="208.64" y="-42.9" width="3.99" height="653.32"/>
  <rect class="st1" x="384.26" y="-42.9" width="3.99" height="653.32"/>
  <rect class="st1" x="1433.96" y="-223.91" width="4.35" height="328.03"/>
  <rect class="st1" x="1471.35" y="-223.91" width="4.35" height="328.03"/>
  <rect class="st1" x="1508.75" y="-223.91" width="4.35" height="328.03"/>
  <rect class="st1" x="1546.14" y="-223.91" width="4.35" height="328.03"/>
  <rect class="st1" x="1583.54" y="-223.91" width="4.35" height="328.03"/>
  <rect class="st1" x="1620.93" y="-223.91" width="4.35" height="328.03"/>
  <rect class="st1" x="1658.33" y="-223.91" width="4.35" height="328.03"/>
  <rect class="st1" x="288.27" y="-53.57" width="3.99" height="532.68" transform="translate(503.04 -77.5) rotate(90)"/>
  <rect class="st1" x="292.27" y="263.66" width="3.99" height="532.68" transform="translate(824.27 235.74) rotate(90)"/>
  <rect class="st1" x="324.48" y="-291.58" width="6.16" height="663.12" transform="translate(367.55 -287.58) rotate(90)"/>
  <rect class="st1" x="288.27" y="105.05" width="3.99" height="532.68" transform="translate(661.66 81.12) rotate(90)"/>
  <rect class="st1" x="1528.34" y="-316.34" width="4.35" height="325.29" transform="translate(1376.82 -1684.2) rotate(90)"/>
  <rect class="st1" x="1528.34" y="-278.94" width="4.35" height="325.29" transform="translate(1414.21 -1646.81) rotate(90)"/>
  <rect class="st1" x="1528.34" y="-241.55" width="4.35" height="325.29" transform="translate(1451.61 -1609.41) rotate(90)"/>
  <rect class="st1" x="1528.34" y="-204.15" width="4.35" height="325.29" transform="translate(1489 -1572.02) rotate(90)"/>
  <rect class="st1" x="1528.34" y="-166.76" width="4.35" height="325.29" transform="translate(1526.4 -1534.62) rotate(90)"/>
  <rect class="st1" x="1528.34" y="-129.36" width="4.35" height="325.29" transform="translate(1563.79 -1497.23) rotate(90)"/>
  <rect class="st1" x="1528.34" y="-91.97" width="4.35" height="325.29" transform="translate(1601.19 -1459.83) rotate(90)"/>
  <text class="st6" transform="translate(106.94 165.07)"><tspan x="0" y="0">1</tspan></text>
  <text class="st6" transform="translate(278.81 164.37)"><tspan x="0" y="0">2</tspan></text>
  <text class="st6" transform="translate(451.7 164.37)"><tspan x="0" y="0">3</tspan></text>
  <text class="st6" transform="translate(106.94 319.11)"><tspan x="0" y="0">4</tspan></text>
  <text class="st6" transform="translate(278.81 318.41)"><tspan x="0" y="0">5</tspan></text>
  <text class="st6" transform="translate(451.7 318.41)"><tspan x="0" y="0">6</tspan></text>
  <text class="st6" transform="translate(106.94 476.67)"><tspan x="0" y="0">7</tspan></text>
  <text class="st6" transform="translate(278.81 475.97)"><tspan x="0" y="0">8</tspan></text>
  <text class="st6" transform="translate(451.7 475.97)"><tspan x="0" y="0">9</tspan></text>
  <rect class="st0" width="634.32" height="36.9"/>
  <rect class="st0" y="532.37" width="634.32" height="36.9"/>
  <rect class="st0" y="-47.95" width="40.66" height="614.99"/>
  <rect class="st0" x="554.62" y="-47.95" width="40.66" height="614.99"/>
</svg>