<?xml version="1.0" encoding="UTF-8"?>
<svg id="Layer_1" xmlns="http://www.w3.org/2000/svg" version="1.1" viewBox="0 0 595.28 567.04">
  <!-- Generator: Adobe Illustrator 30.1.0, SVG Export Plug-In . SVG Version: 2.1.1 Build 136)  -->
  <defs>
    <style>
      .st0 {
        fill: #e21f26;
      }

      .st1 {
        fill: #010101;
      }

      .st2 {
        fill: #e22228;
      }

      .st3 {
        fill: #f7f8f8;
      }

      .st4 {
        fill: #fff;
      }

      .st5 {
        fill: none;
        stroke: #000;
        stroke-miterlimit: 10;
        stroke-width: 8px;
      }
    </style>
  </defs>
  <g>
    <polygon class="st0" points="-332.06 234.19 -496.11 208.19 -496.11 148.74 -332.06 148.74 -332.06 234.19"/>
    <rect class="st0" x="-418.07" y="92.17" width="7.87" height="42.4"/>
    <rect x="-539.36" y="138.63" width="249.44" height="10.11" rx="-20.24" ry="-20.24"/>
    <rect x="-419.85" y="-117.32" width="10.94" height="397.76" transform="translate(-332.82 495.94) rotate(90)"/>
    <rect x="-260.4" y="76.09" width="23.51" height="496.66" transform="translate(-497.3 648.83) rotate(-180)"/>
    <rect x="-591.86" y="76.09" width="23.51" height="496.66" transform="translate(-1160.22 648.83) rotate(-180)"/>
    <circle cx="-414.94" cy="506.01" r="15.21"/>
    <path d="M-580.12,475.16v61.7H-248.66v-61.7h-331.46ZM-414.95,532.17c-14.38,0-26.03-11.65-26.03-26.03s11.65-26.03,26.03-26.03,26.03,11.65,26.03,26.03-11.66,26.03-26.03,26.03Z"/>
    <path class="st5" d="M-446.45,592.09l1.2,6.27,4.73,24.6h.01c.98,5.25,3.54,9.94,7.16,13.56,4.71,4.72,11.22,7.63,18.41,7.63s13.7-2.91,18.41-7.63c3.62-3.62,6.18-8.31,7.16-13.56h.01l4.73-24.6,1.2-6.27"/>
    <ellipse class="st5" cx="-414.94" cy="593.15" rx="31.51" ry="8.27"/>
    <rect x="-568.36" y="468.04" width="307.95" height="7.12"/>
    <rect x="-568.36" y="536.86" width="307.95" height="7.12"/>
  </g>
  <g>
    <rect class="st2" x="1329.11" y="-464.86" width="151.89" height="146.47"/>
    <rect class="st2" x="1730.87" y="-464.86" width="151.89" height="146.47"/>
    <rect class="st2" x="1730.87" y="-86.22" width="151.89" height="146.47"/>
    <rect class="st2" x="1329.11" y="-86.22" width="151.89" height="146.47"/>
    <path class="st1" d="M1400.85-291.54V-113.14h23.21v-178.4h-23.21ZM1785.7-291.54V-113.14h23.21v-178.4h-23.21ZM1510.56-1.38h188.08v-23.21h-188.08V-1.38ZM1514.47-403.24v23.21h180.29v-23.21h-180.29Z"/>
    <path class="st1" d="M1712.03-113.14h-13.39v19.33l-64.65-63.59,1.33-1.36c5.27-3.71,9.81-8.32,13.43-13.66.03-.03.07-.07.07-.1l1.43-1.43,61.8,60.8Z"/>
    <path class="st1" d="M1575.77-247.18c-6.6,4.21-12.17,9.85-16.31,16.48l-61.83-60.84h16.84v-15.98l61.3,60.34Z"/>
    <path class="st1" d="M1712.13-291.54l-61.9,60.9-1.29-1.33c-3.71-5.57-8.42-10.38-13.92-14.16l-1.03-1.06,60.77-59.81v15.45h17.37Z"/>
    <path class="st1" d="M1510.56-93.25v-19.89h-12.83l61.77-60.77c4.08,6.53,9.58,12.1,16.05,16.28l.23.23-65.21,64.15Z"/>
    <circle class="st1" cx="1604.61" cy="-202.34" r="28.3"/>
    <polygon class="st4" points="1346.2 47.58 1342.89 47.58 1342.89 -72.28 1462.74 -72.28 1462.74 -68.97 1346.2 -68.97 1346.2 47.58"/>
    <polygon class="st4" points="1346.2 -332.54 1342.89 -332.54 1342.89 -452.39 1462.74 -452.39 1462.74 -449.08 1346.2 -449.08 1346.2 -332.54"/>
    <polygon class="st4" points="1751.47 47.58 1748.15 47.58 1748.15 -72.28 1868.01 -72.28 1868.01 -68.97 1751.47 -68.97 1751.47 47.58"/>
    <polygon class="st4" points="1749.37 -332.53 1746.06 -332.53 1746.06 -452.38 1865.91 -452.38 1865.91 -449.07 1749.37 -449.07 1749.37 -332.53"/>
  </g>
  <path class="st2" d="M1191.18,102.32c21.66,0,39.22-17.14,39.22-38.28h0c0-21.14-17.57-38.26-39.24-38.26l-154.95.04c-6.92,0-12.53-5.47-12.53-12.22l-.03-117.51c0-21.14-17.57-38.26-39.24-38.26h-.77c-21.66,0-39.22,17.14-39.22,38.28l.03,117.51c0,6.75-5.61,12.22-12.52,12.22l-340.94.08c-6.92,0-12.53-5.47-12.53-12.22l-.03-117.51c0-21.14-17.57-38.26-39.24-38.26h-.77c-21.66,0-39.22,17.14-39.22,38.28l.03,117.51c0,6.75-5.61,12.22-12.52,12.22l-377.25.09c-6.92,0-12.53-5.47-12.53-12.22l-.03-117.51c0-21.14-17.57-38.26-39.24-38.26h-.77c-21.66,0-39.22,17.14-39.22,38.28l.03,117.51c0,6.75-5.61,12.22-12.52,12.22l-112.87.03c-21.66,0-39.22,17.14-39.22,38.28h0c0,21.14,17.57,38.26,39.24,38.26l112.87-.03c6.92,0,12.53,5.47,12.53,12.22l.09,364.2c0,6.75-5.61,12.22-12.52,12.22l-224.73-4.01c-21.66,0-39.22,17.14-39.22,38.28h0c0,21.14,17.57,38.26,39.24,38.26l224.73,4.01c6.92,0,12.53,5.47,12.53,12.22l.09,364.2c0,6.75-5.61,12.22-12.52,12.22l-112.87.03c-21.66,0-39.22,17.14-39.22,38.28h0c0,21.14,17.57,38.26,39.24,38.26l112.87-.03c6.92,0,12.53,5.47,12.53,12.22l-3.87,297.1c0,21.14,17.57,38.26,39.24,38.26h.77c21.66,0,39.22-17.14,39.22-38.28l3.87-297.1c0-6.75,5.61-12.22,12.52-12.22l377.25-.09c6.92,0,12.53,5.47,12.53,12.22l-13.41,443.59c0,21.14,17.57,38.26,39.24,38.26h.77c21.67,0,39.22-17.14,39.22-38.28l13.41-443.59c0-6.75,5.61-12.22,12.52-12.22l340.94-.08c6.92,0,12.53,5.47,12.53,12.22l-2.75,308.81c0,21.14,17.57,38.26,39.24,38.26h.77c21.66,0,39.22-17.14,39.22-38.28l2.75-308.81c0-6.75,5.61-12.22,12.52-12.22l279.4-6.76c21.66,0,39.22-17.14,39.22-38.28h0c0-21.14-17.57-38.26-39.24-38.26l-279.4,6.76c-6.92,0-12.53-5.47-12.53-12.22l-.09-364.2c0-6.75,5.61-12.22,12.52-12.22l403.6-2.92c21.66,0,39.22-17.14,39.22-38.28h0c0-21.14-17.57-38.26-39.24-38.26l-403.6,2.92c-6.92,0-12.53-5.47-12.53-12.22l-.09-364.2c0-6.75,5.61-12.22,12.52-12.22l154.95-.04ZM109.48,102.58l377.25-.09c6.92,0,12.53,5.47,12.53,12.22l.09,364.2c0,6.75-5.61,12.22-12.52,12.22l-377.25.09c-6.92,0-12.53-5.47-12.53-12.22l-.09-364.2c0-6.75,5.61-12.22,12.52-12.22ZM97.16,944.18l-.09-364.2c0-6.75,5.61-12.22,12.52-12.22l377.25-.09c6.92,0,12.53,5.47,12.53,12.22l.09,364.2c0,6.75-5.61,12.22-12.52,12.22l-377.25.09c-6.92,0-12.53-5.47-12.53-12.22ZM932.16,956.21l-340.94.08c-6.92,0-12.53-5.47-12.53-12.22l-.09-364.2c0-6.75,5.61-12.22,12.52-12.22l340.94-.08c6.92,0,12.53,5.47,12.53,12.22l.09,364.2c0,6.75-5.61,12.22-12.52,12.22ZM932.05,491.03l-340.94.08c-6.92,0-12.53-5.47-12.53-12.22l-.09-364.2c0-6.75,5.61-12.22,12.52-12.22l340.94-.08c6.92,0,12.53,5.47,12.53,12.22l.09,364.2c0,6.75-5.61,12.22-12.52,12.22Z"/>
  <path class="st1" d="M1460.35,496.48c5.14,0,9.31-4.07,9.31-9.08,0-5.02-4.17-9.08-9.31-9.08l-500.33,2.43-.11-447.02,190.6-.05c5.14,0,9.31-4.07,9.31-9.08,0-5.02-4.17-9.08-9.31-9.08l-190.6.05-.04-159.18c0-5.02-4.17-9.08-9.31-9.08-5.14,0-9.31,4.07-9.31,9.08l.04,159.18-430.78.1-.04-159.18c0-5.02-4.17-9.08-9.31-9.08h0c-5.14,0-9.31,4.07-9.31,9.08l.04,159.18-458.22.11-.04-159.18c0-5.02-4.17-9.08-9.31-9.08-5.14,0-9.31,4.07-9.31,9.08l.04,159.18-163.17.04c-5.14,0-9.31,4.07-9.31,9.08,0,5.02,4.17,9.08,9.31,9.08l163.17-.04.11,447.02-163.17.04c-5.14,0-9.31,4.07-9.31,9.08,0,5.02,4.17,9.08,9.31,9.08l163.17-.04.11,447.02-163.17.04c-5.14,0-9.31,4.07-9.31,9.08,0,5.02,4.17,9.08,9.31,9.08l163.17-.04.04,159.18c0,5.02,4.17,9.08,9.31,9.08,5.14,0,9.31-4.07,9.31-9.08l-.04-159.18,458.22-.11.04,159.18c0,5.02,4.17,9.08,9.31,9.08,5.14,0,9.31-4.07,9.31-9.08l-.04-159.18,430.78-.1.04,159.18c0,5.02,4.17,9.08,9.31,9.08,5.14,0,9.31-4.07,9.31-9.08l-.04-159.18,492.63-1.21c5.14,0,9.31-4.07,9.31-9.08,0-5.02-4.17-9.08-9.31-9.08l-492.63,1.21-.11-447.02,500.33-2.43ZM941.28,33.73l.11,447.02-430.78.1-.11-447.02,430.78-.1ZM33.66,33.95l458.22-.11.11,447.02-458.22.11-.11-447.02ZM33.89,946.14l-.11-447.02,458.22-.11.11,447.02-458.22.11ZM941.51,945.93l-430.78.1-.11-447.02,430.78-.1.11,447.02Z"/>
  <path class="st3" d="M1459.11,481.62c5.14,0,9.31-4.07,9.31-9.08,0-5.02-4.17-9.08-9.31-9.08l-513.84.65-.11-447.02,190.6-.05c5.14,0,9.31-4.07,9.31-9.08,0-5.02-4.17-9.08-9.31-9.08l-190.6.05-.04-159.18c0-5.02-4.17-9.08-9.31-9.08-5.14,0-9.31,4.07-9.31,9.08l.04,159.18-430.78.1-.04-159.18c0-5.02-4.17-9.08-9.31-9.08h0c-5.14,0-9.31,4.07-9.31,9.08l.04,159.18L18.91-.86l-.04-159.18c0-5.02-4.17-9.08-9.31-9.08-5.14,0-9.31,4.07-9.31,9.08L.29-.86l-163.17.04c-5.14,0-9.31,4.07-9.31,9.08,0,5.02,4.17,9.08,9.31,9.08l163.17-.04.11,447.02-163.17.04c-5.14,0-9.31,4.07-9.31,9.08,0,5.02,4.17,9.08,9.31,9.08l163.17-.04.11,447.02-163.17.04c-5.14,0-9.31,4.07-9.31,9.08,0,5.02,4.17,9.08,9.31,9.08l163.17-.04.04,159.18c0,5.02,4.17,9.08,9.31,9.08,5.14,0,9.31-4.07,9.31-9.08l-.04-159.18,458.22-.11.04,159.18c0,5.02,4.17,9.08,9.31,9.08,5.14,0,9.31-4.07,9.31-9.08l-.04-159.18,430.78-.1.04,159.18c0,5.02,4.17,9.08,9.31,9.08,5.14,0,9.31-4.07,9.31-9.08l-.04-159.18,504.13.09c5.14,0,9.31-4.07,9.31-9.08,0-5.02-4.17-9.08-9.31-9.08l-504.13-.09-.11-447.02,513.84-.65ZM926.54,17.09l.11,447.02-430.78.1-.11-447.02,430.78-.1ZM18.92,17.3l458.22-.11.11,447.02-458.22.11-.11-447.02ZM19.14,929.5l-.11-447.02,458.22-.11.11,447.02-458.22.11ZM926.77,929.29l-430.78.1-.11-447.02,430.78-.1.11,447.02Z"/>
  <path class="st1" d="M894.6,638.24l-36.83-.21-.03-51.81h-12.08s-12.32.02-12.32.02l.03,51.65-39.65-.23-.03-51.42h-12.08s0,0,0,0h-12.32s.03,51.27.03,51.27l-38.91-.22-.03-51.01h-12.08s0,0,0,0h-12.32s.03,50.87.03,50.87l-44.47-.26-.03-50.59h-12.08s0,0,0,0h-12.32s.03,50.45.03,50.45l-29.93-.17-.07,11.22h.15s-.07,11-.07,11l29.93.17.02,40.46-29.52-.17-.07,11.22h.15s-.07,10.99-.07,10.99l29.53.17.02,35.4-29.16-.17-.07,11.22h.15s-.07,10.99-.07,10.99l29.17.17.02,36.08-28.78-.16-.07,11.22h.15s-.07,10.99-.07,10.99l28.79.16.03,54.4h12.08s12.32-.02,12.32-.02l-.03-54.24,44.47.25.03,53.97h12.08s0,0,0,0h12.32s-.03-53.82-.03-53.82l38.91.22.03,53.58h12.08s12.32-.02,12.32-.02l-.03-53.42,39.65.23.03,53.18h12.08s0,0,0,0h12.32s-.03-53.04-.03-53.04l37.96.22.07-11.22h-.15s.07-10.99.07-10.99l-37.98-.22-.02-36.08,37.59.22.07-11.22h-.15s.07-10.99.07-10.99l-37.6-.22-.02-35.4,37.22.21.07-11.22h-.15s.07-10.99.07-10.99l-37.24-.21-.02-40.46,36.82.21.07-11.22h-.15s.07-10.99.07-10.99ZM769.36,722.41l.02,35.4-38.91-.22-.02-35.4,38.91.22ZM769.35,700.2l-38.91-.22-.02-40.46,38.91.22.02,40.46ZM706.03,699.83l-44.47-.25-.02-40.46,44.47.25.02,40.46ZM706.05,722.05l.02,35.4-44.47-.25-.02-35.4,44.47.25ZM706.08,779.66l.02,36.08-44.47-.25-.02-36.08,44.47.25ZM730.48,779.8l38.91.22.02,36.08-38.91-.22-.02-36.08ZM793.79,780.16l39.65.23.02,36.08-39.65-.23-.02-36.08ZM793.78,757.95l-.02-35.4,39.65.23.02,35.4-39.65-.23ZM793.75,700.34l-.02-40.46,39.65.23.02,40.46-39.65-.23Z"/>
  <path class="st1" d="M894.6,200.77l-32.05-.18-.03-53.11h-12.08s-12.32.02-12.32.02l.03,52.95-39.65-.23-.03-52.71h-12.08s-12.32.02-12.32.02l.03,52.55-38.91-.22-.03-52.32h-12.08s0,0,0,0h-12.32s.03,52.17.03,52.17l-44.47-.25-.03-51.89h-12.08s-12.32.02-12.32.02l.03,51.73-34.7-.2-.07,11.22h.15s-.07,10.99-.07,10.99l34.71.2.02,40.46-34.3-.2-.07,11.22h.15s-.07,11-.07,11l34.31.2.02,35.4-33.93-.19-.07,11.22h.15s-.07,10.99-.07,10.99l33.94.19.02,36.08-33.56-.19-.07,11.22h.15s-.07,11-.07,11l33.57.19.03,53.1h12.08s12.32-.02,12.32-.02l-.03-52.94,44.47.26.03,52.67h12.08s12.32-.02,12.32-.02l-.03-52.51,38.91.22.03,52.28h12.08s12.32-.02,12.32-.02l-.03-52.12,39.65.23.03,51.87h12.08s0,0,0,0h12.32s-.03-51.73-.03-51.73l33.18.19.07-11.22h-.15s.07-11,.07-11l-33.19-.19-.02-36.07,32.81.19.07-11.22h-.15s.07-11,.07-11l-32.82-.19-.02-35.4,32.44.19.07-11.22h-.15s.07-11,.07-11l-32.45-.19-.02-40.46,32.04.18.07-11.22h-.15s.07-11,.07-11ZM774.13,284.97l.02,35.4-38.91-.22-.02-35.4,38.91.22ZM774.12,262.76l-38.91-.22-.02-40.46,38.91.22.02,40.46ZM710.81,262.39l-44.47-.25-.02-40.46,44.47.26.02,40.46ZM710.82,284.61l.02,35.4-44.47-.25-.02-35.4,44.47.25ZM710.85,342.23l.02,36.08-44.47-.25-.02-36.08,44.47.26ZM735.26,342.37l38.91.22.02,36.07-38.91-.22-.02-36.08ZM798.57,342.73l39.65.23.02,36.07-39.65-.23-.02-36.07ZM798.55,320.52l-.02-35.4,39.65.23.02,35.4-39.65-.23ZM798.52,262.9l-.02-40.46,39.65.23.02,40.46-39.65-.23Z"/>
  <path class="st1" d="M429.68,644.32l-32.05-.18-.03-53.11h-12.08s-12.32.02-12.32.02l.03,52.95-39.65-.23-.03-52.72h-12.08s0,0,0,0h-12.32s.03,52.57.03,52.57l-38.91-.22-.03-52.32h-12.08s-12.32.02-12.32.02l.03,52.17-44.47-.25-.03-51.9h-12.08s-12.32.02-12.32.02l.03,51.74-34.7-.2-.07,11.22h.15s-.07,10.99-.07,10.99l34.71.2.02,40.46-34.3-.2-.07,11.22h.15s-.07,10.99-.07,10.99l34.31.2.02,35.4-33.93-.19-.07,11.22h.15s-.07,10.99-.07,10.99l33.94.2.02,36.08-33.56-.19-.07,11.22h.15s-.07,10.99-.07,10.99l33.57.19.03,53.1h12.08s12.32-.02,12.32-.02l-.03-52.95,44.46.25.03,52.68h12.08s12.32-.02,12.32-.02l-.03-52.52,38.91.22.03,52.28h12.08s12.32-.02,12.32-.02l-.03-52.13,39.65.23.03,51.88h12.08s0,0,0,0h12.32s-.03-51.74-.03-51.74l33.19.19.07-11.22h-.15s.07-10.99.07-10.99l-33.2-.19-.02-36.07,32.82.19.07-11.22h-.15s.07-11,.07-11l-32.83-.19-.02-35.4,32.44.19.07-11.22h-.15s.07-10.99.07-10.99l-32.46-.19-.02-40.46,32.04.18.07-11.22h-.15s.07-10.99.07-10.99ZM309.22,728.52l.02,35.4-38.91-.22-.02-35.4,38.91.22ZM309.21,706.31l-38.91-.22-.02-40.46,38.91.22.02,40.46ZM245.89,705.94l-44.47-.25-.02-40.46,44.47.25.02,40.46ZM245.91,728.16l.02,35.4-44.47-.25-.02-35.4,44.47.25ZM245.94,785.78l.02,36.08-44.46-.25-.02-36.08,44.47.26ZM270.34,785.92l38.91.22.02,36.08-38.91-.22-.02-36.08ZM333.66,786.28l39.65.23.02,36.07-39.65-.23-.02-36.08ZM333.64,764.06l-.02-35.4,39.65.23.02,35.4-39.65-.23ZM333.61,706.45l-.02-40.46,39.65.23.02,40.46-39.65-.23Z"/>
  <path class="st1" d="M1358.21,202.08l-32.05-.18-.03-53.11h-12.08s-12.32.02-12.32.02l.03,52.95-39.65-.23-.03-52.72h-12.08s0,0,0,0h-12.32s.03,52.57.03,52.57l-38.91-.22-.03-52.32h-12.08s-12.32.02-12.32.02l.03,52.17-44.47-.25-.03-51.9h-12.08s-12.32.02-12.32.02l.03,51.74-34.7-.2-.07,11.22h.15s-.07,10.99-.07,10.99l34.71.2.02,40.46-34.3-.2-.07,11.22h.15s-.07,10.99-.07,10.99l34.31.2.02,35.4-33.93-.19-.07,11.22h.15s-.07,10.99-.07,10.99l33.94.2.02,36.08-33.56-.19-.07,11.22h.15s-.07,10.99-.07,10.99l33.57.19.03,53.1h12.08s12.32-.02,12.32-.02l-.03-52.95,44.46.25.03,52.68h12.08s12.32-.02,12.32-.02l-.03-52.52,38.91.22.03,52.28h12.08s12.32-.02,12.32-.02l-.03-52.13,39.65.23.03,51.88h12.08s0,0,0,0h12.32s-.03-51.74-.03-51.74l33.19.19.07-11.22h-.15s.07-10.99.07-10.99l-33.2-.19-.02-36.07,32.82.19.07-11.22h-.15s.07-11,.07-11l-32.83-.19-.02-35.4,32.44.19.07-11.22h-.15s.07-10.99.07-10.99l-32.46-.19-.02-40.46,32.04.18.07-11.22h-.15s.07-10.99.07-10.99ZM1237.75,286.28l.02,35.4-38.91-.22-.02-35.4,38.91.22ZM1237.74,264.06l-38.91-.22-.02-40.46,38.91.22.02,40.46ZM1174.42,263.7l-44.47-.25-.02-40.46,44.47.25.02,40.46ZM1174.44,285.92l.02,35.4-44.47-.25-.02-35.4,44.47.25ZM1174.47,343.53l.02,36.08-44.46-.25-.02-36.08,44.47.26ZM1198.87,343.67l38.91.22.02,36.08-38.91-.22-.02-36.08ZM1262.19,344.04l39.65.23.02,36.07-39.65-.23-.02-36.08ZM1262.17,321.82l-.02-35.4,39.65.23.02,35.4-39.65-.23ZM1262.14,264.2l-.02-40.46,39.65.23.02,40.46-39.65-.23Z"/>
  <path class="st1" d="M1359.75,642.2l-32.05-.18-.03-53.11h-12.08s-12.32.02-12.32.02l.03,52.95-39.65-.23-.03-52.72h-12.08s0,0,0,0h-12.32s.03,52.57.03,52.57l-38.91-.22-.03-52.32h-12.08s-12.32.02-12.32.02l.03,52.17-44.47-.25-.03-51.9h-12.08s-12.32.02-12.32.02l.03,51.74-34.7-.2-.07,11.22h.15s-.07,10.99-.07,10.99l34.71.2.02,40.46-34.3-.2-.07,11.22h.15s-.07,10.99-.07,10.99l34.31.2.02,35.4-33.93-.19-.07,11.22h.15s-.07,10.99-.07,10.99l33.94.2.02,36.08-33.56-.19-.07,11.22h.15s-.07,10.99-.07,10.99l33.57.19.03,53.1h12.08s12.32-.02,12.32-.02l-.03-52.95,44.46.25.03,52.68h12.08s12.32-.02,12.32-.02l-.03-52.52,38.91.22.03,52.28h12.08s12.32-.02,12.32-.02l-.03-52.13,39.65.23.03,51.88h12.08s0,0,0,0h12.32s-.03-51.74-.03-51.74l33.19.19.07-11.22h-.15s.07-10.99.07-10.99l-33.2-.19-.02-36.07,32.82.19.07-11.22h-.15s.07-11,.07-11l-32.83-.19-.02-35.4,32.44.19.07-11.22h-.15s.07-10.99.07-10.99l-32.46-.19-.02-40.46,32.04.18.07-11.22h-.15s.07-10.99.07-10.99ZM1239.29,726.39l.02,35.4-38.91-.22-.02-35.4,38.91.22ZM1239.28,704.18l-38.91-.22-.02-40.46,38.91.22.02,40.46ZM1175.96,703.82l-44.47-.25-.02-40.46,44.47.25.02,40.46ZM1175.98,726.03l.02,35.4-44.47-.25-.02-35.4,44.47.25ZM1176.01,783.65l.02,36.08-44.46-.25-.02-36.08,44.47.26ZM1200.41,783.79l38.91.22.02,36.08-38.91-.22-.02-36.08ZM1263.72,784.16l39.65.23.02,36.07-39.65-.23-.02-36.08ZM1263.71,761.93l-.02-35.4,39.65.23.02,35.4-39.65-.23ZM1263.68,704.32l-.02-40.46,39.65.23.02,40.46-39.65-.23Z"/>
  <path class="st1" d="M889.62,1092.05l-32.05-.18-.03-53.11h-12.08s-12.32.02-12.32.02l.03,52.95-39.65-.23-.03-52.72h-12.08s0,0,0,0h-12.32s.03,52.57.03,52.57l-38.91-.22-.03-52.32h-12.08s-12.32.02-12.32.02l.03,52.17-44.47-.25-.03-51.9h-12.08s-12.32.02-12.32.02l.03,51.74-34.7-.2-.07,11.22h.15s-.07,10.99-.07,10.99l34.71.2.02,40.46-34.3-.2-.07,11.22h.15s-.07,10.99-.07,10.99l34.31.2.02,35.4-33.93-.19-.07,11.22h.15s-.07,10.99-.07,10.99l33.94.2.02,36.08-33.56-.19-.07,11.22h.15s-.07,10.99-.07,10.99l33.57.19.03,53.1h12.08s12.32-.02,12.32-.02l-.03-52.95,44.46.25.03,52.68h12.08s12.32-.02,12.32-.02l-.03-52.52,38.91.22.03,52.28h12.08s12.32-.02,12.32-.02l-.03-52.13,39.65.23.03,51.88h12.08s0,0,0,0h12.32s-.03-51.74-.03-51.74l33.19.19.07-11.22h-.15s.07-10.99.07-10.99l-33.2-.19-.02-36.07,32.82.19.07-11.22h-.15s.07-11,.07-11l-32.83-.19-.02-35.4,32.44.19.07-11.22h-.15s.07-10.99.07-10.99l-32.46-.19-.02-40.46,32.04.18.07-11.22h-.15s.07-10.99.07-10.99ZM769.16,1176.25l.02,35.4-38.91-.22-.02-35.4,38.91.22ZM769.15,1154.04l-38.91-.22-.02-40.46,38.91.22.02,40.46ZM705.84,1153.68l-44.47-.25-.02-40.46,44.47.25.02,40.46ZM705.85,1175.89l.02,35.4-44.47-.25-.02-35.4,44.47.25ZM705.88,1233.51l.02,36.08-44.46-.25-.02-36.08,44.47.26ZM730.29,1233.65l38.91.22.02,36.08-38.91-.22-.02-36.08ZM793.6,1234.01l39.65.23.02,36.07-39.65-.23-.02-36.08ZM793.59,1211.79l-.02-35.4,39.65.23.02,35.4-39.65-.23ZM793.55,1154.18l-.02-40.46,39.65.23.02,40.46-39.65-.23Z"/>
  <path class="st1" d="M432.02,1096.24l-32.05-.18-.03-53.11h-12.08s-12.32.02-12.32.02l.03,52.95-39.65-.23-.03-52.72h-12.08s0,0,0,0h-12.32s.03,52.57.03,52.57l-38.91-.22-.03-52.32h-12.08s-12.32.02-12.32.02l.03,52.17-44.47-.25-.03-51.9h-12.08s-12.32.02-12.32.02l.03,51.74-34.7-.2-.07,11.22h.15s-.07,10.99-.07,10.99l34.71.2.02,40.46-34.3-.2-.07,11.22h.15s-.07,10.99-.07,10.99l34.31.2.02,35.4-33.93-.19-.07,11.22h.15s-.07,10.99-.07,10.99l33.94.2.02,36.08-33.56-.19-.07,11.22h.15s-.07,10.99-.07,10.99l33.57.19.03,53.1h12.08s12.32-.02,12.32-.02l-.03-52.95,44.46.25.03,52.68h12.08s12.32-.02,12.32-.02l-.03-52.52,38.91.22.03,52.28h12.08s12.32-.02,12.32-.02l-.03-52.13,39.65.23.03,51.88h12.08s0,0,0,0h12.32s-.03-51.74-.03-51.74l33.19.19.07-11.22h-.15s.07-10.99.07-10.99l-33.2-.19-.02-36.07,32.82.19.07-11.22h-.15s.07-11,.07-11l-32.83-.19-.02-35.4,32.44.19.07-11.22h-.15s.07-10.99.07-10.99l-32.46-.19-.02-40.46,32.04.18.07-11.22h-.15s.07-10.99.07-10.99ZM311.56,1180.44l.02,35.4-38.91-.22-.02-35.4,38.91.22ZM311.55,1158.22l-38.91-.22-.02-40.46,38.91.22.02,40.46ZM248.23,1157.86l-44.47-.25-.02-40.46,44.47.25.02,40.46ZM248.24,1180.08l.02,35.4-44.47-.25-.02-35.4,44.47.25ZM248.28,1237.69l.02,36.08-44.46-.25-.02-36.08,44.47.26ZM272.68,1237.83l38.91.22.02,36.08-38.91-.22-.02-36.08ZM335.99,1238.2l39.65.23.02,36.07-39.65-.23-.02-36.08ZM335.98,1215.98l-.02-35.4,39.65.23.02,35.4-39.65-.23ZM335.95,1158.36l-.02-40.46,39.65.23.02,40.46-39.65-.23Z"/>
  <path class="st1" d="M1357.68,1087.87l-32.05-.18-.03-53.11h-12.08s-12.32.02-12.32.02l.03,52.95-39.65-.23-.03-52.72h-12.08s0,0,0,0h-12.32s.03,52.57.03,52.57l-38.91-.22-.03-52.32h-12.08s-12.32.02-12.32.02l.03,52.17-44.47-.25-.03-51.9h-12.08s-12.32.02-12.32.02l.03,51.74-34.7-.2-.07,11.22h.15s-.07,10.99-.07,10.99l34.71.2.02,40.46-34.3-.2-.07,11.22h.15s-.07,10.99-.07,10.99l34.31.2.02,35.4-33.93-.19-.07,11.22h.15s-.07,10.99-.07,10.99l33.94.2.02,36.08-33.56-.19-.07,11.22h.15s-.07,10.99-.07,10.99l33.57.19.03,53.1h12.08s12.32-.02,12.32-.02l-.03-52.95,44.46.25.03,52.68h12.08s12.32-.02,12.32-.02l-.03-52.52,38.91.22.03,52.28h12.08s12.32-.02,12.32-.02l-.03-52.13,39.65.23.03,51.88h12.08s0,0,0,0h12.32s-.03-51.74-.03-51.74l33.19.19.07-11.22h-.15s.07-10.99.07-10.99l-33.2-.19-.02-36.07,32.82.19.07-11.22h-.15s.07-11,.07-11l-32.83-.19-.02-35.4,32.44.19.07-11.22h-.15s.07-10.99.07-10.99l-32.46-.19-.02-40.46,32.04.18.07-11.22h-.15s.07-10.99.07-10.99ZM1237.22,1172.07l.02,35.4-38.91-.22-.02-35.4,38.91.22ZM1237.21,1149.85l-38.91-.22-.02-40.46,38.91.22.02,40.46ZM1173.89,1149.49l-44.47-.25-.02-40.46,44.47.25.02,40.46ZM1173.91,1171.71l.02,35.4-44.47-.25-.02-35.4,44.47.25ZM1173.94,1229.32l.02,36.08-44.46-.25-.02-36.08,44.47.26ZM1198.34,1229.46l38.91.22.02,36.08-38.91-.22-.02-36.08ZM1261.66,1229.83l39.65.23.02,36.07-39.65-.23-.02-36.08ZM1261.64,1207.61l-.02-35.4,39.65.23.02,35.4-39.65-.23ZM1261.61,1149.99l-.02-40.46,39.65.23.02,40.46-39.65-.23Z"/>
  <path class="st2" d="M1301.13,34.29c9.25,0,16.74-6.73,16.74-15.02h0c0-8.29-7.5-15.01-16.75-15.01h-66.14c-2.95.02-5.35-2.13-5.35-4.78v-46.1c-.01-8.29-7.51-15.01-16.76-15.01h-.33c-9.25,0-16.74,6.73-16.74,15.02V-.51c.01,2.65-2.38,4.79-5.33,4.8l-145.54.03c-2.95,0-5.35-2.15-5.35-4.79v-46.1c-.01-8.29-7.51-15.01-16.76-15.01h-.33c-9.25,0-16.74,6.73-16.74,15.02V-.47c.01,2.65-2.38,4.79-5.33,4.8l-161.04.04c-2.95,0-5.35-2.15-5.35-4.79v-46.1c-.01-8.29-7.51-15.01-16.76-15.01h-.33c-9.25,0-16.74,6.73-16.74,15.02V-.42c.01,2.65-2.38,4.79-5.33,4.8h-48.18c-9.25.01-16.74,6.74-16.74,15.03h0c0,8.29,7.5,15.01,16.75,15.01h48.18c2.95-.01,5.35,2.13,5.35,4.78l.04,142.88c0,2.65-2.39,4.79-5.35,4.8l-95.93-1.57c-9.25,0-16.74,6.73-16.74,15.02h0c0,8.29,7.5,15.01,16.75,15.01l95.93,1.57c2.95,0,5.35,2.15,5.35,4.79l.04,142.88c0,2.65-2.39,4.79-5.35,4.8h-48.18c-9.25.01-16.74,6.74-16.74,15.03h0c0,8.29,7.5,15.01,16.75,15.01h48.18c2.95-.01,5.35,2.13,5.35,4.78l-1.65,116.55c0,8.29,7.5,15.01,16.75,15.01h.33c9.25,0,16.74-6.73,16.74-15.02l1.65-116.55c0-2.65,2.39-4.79,5.35-4.8l161.04-.04c2.95,0,5.35,2.15,5.35,4.79l-5.72,174.02c0,8.29,7.5,15.01,16.75,15.01h.33c9.25,0,16.74-6.73,16.74-15.02l5.72-174.02c0-2.65,2.39-4.79,5.35-4.8l145.54-.03c2.95,0,5.35,2.15,5.35,4.79l-1.17,121.15c0,8.29,7.5,15.01,16.75,15.01h.33c9.25,0,16.74-6.73,16.74-15.02l1.17-121.15c0-2.65,2.39-4.79,5.35-4.8l119.27-2.65c9.25,0,16.74-6.73,16.74-15.02h0c0-8.29-7.5-15.01-16.75-15.01l-119.27,2.65c-2.95,0-5.35-2.15-5.35-4.79l-.04-142.88c0-2.65,2.39-4.79,5.35-4.8l172.29-1.15c9.25,0,16.74-6.73,16.74-15.02h0c0-8.29-7.5-15.01-16.75-15.01l-172.28,1.15c-2.95,0-5.35-2.15-5.35-4.79l-.04-142.88c0-2.65,2.39-4.79,5.35-4.8h66.14ZM839.38,34.39l161.04-.04c2.95,0,5.35,2.15,5.35,4.79l.04,142.88c0,2.65-2.39,4.79-5.35,4.8l-161.04.04c-2.95,0-5.35-2.15-5.35-4.79l-.04-142.88c0-2.65,2.39-4.79,5.35-4.8ZM834.12,364.55l-.04-142.88c0-2.65,2.39-4.79,5.35-4.8l161.04-.04c2.95,0,5.35,2.15,5.35,4.79l.04,142.88c0,2.65-2.39,4.79-5.35,4.8l-161.04.04c-2.95,0-5.35-2.15-5.35-4.79ZM1190.56,369.26l-145.54.03c-2.95,0-5.35-2.15-5.35-4.79l-.04-142.88c0-2.65,2.39-4.79,5.35-4.8l145.54-.03c2.95,0,5.35,2.15,5.35,4.79l.04,142.88c0,2.65-2.39,4.79-5.35,4.8ZM1190.51,186.78l-145.54.03c-2.95,0-5.35-2.15-5.35-4.79l-.04-142.88c0-2.65,2.39-4.79,5.35-4.8l145.54-.03c2.95,0,5.35,2.15,5.35,4.79l.04,142.88c0,2.65-2.39,4.79-5.35,4.8Z"/>
  <path class="st1" d="M1416.03,188.91c2.19,0,3.97-1.6,3.97-3.56,0-1.97-1.78-3.56-3.97-3.56l-213.58.95-.05-175.36,81.36-.02c2.19,0,3.97-1.6,3.97-3.56s-1.78-3.56-3.97-3.56l-81.36.02-.02-62.44c0-1.97-1.78-3.56-3.98-3.56-2.19,0-3.97,1.6-3.97,3.56l.02,62.44-183.89.04-.02-62.44c0-1.97-1.78-3.56-3.97-3.56h0c-2.19,0-3.97,1.6-3.97,3.56l.02,62.44-195.6.04-.02-62.44c0-1.97-1.78-3.56-3.97-3.56-2.19,0-3.97,1.6-3.97,3.56l.02,62.44-69.65.02c-2.19,0-3.97,1.6-3.97,3.56,0,1.97,1.78,3.56,3.98,3.56l69.65-.02.05,175.36-69.65.02c-2.19,0-3.97,1.6-3.97,3.56,0,1.97,1.78,3.56,3.98,3.56l69.65-.02.05,175.36-69.65.02c-2.19,0-3.97,1.6-3.97,3.56,0,1.97,1.78,3.56,3.98,3.56l69.65-.02.02,62.44c0,1.97,1.78,3.56,3.97,3.56,2.19,0,3.97-1.6,3.97-3.56l-.02-62.44,195.6-.04.02,62.44c0,1.97,1.78,3.56,3.97,3.56,2.19,0,3.97-1.6,3.97-3.56l-.02-62.44,183.89-.04.02,62.44c0,1.97,1.78,3.56,3.97,3.56,2.19,0,3.97-1.6,3.97-3.56l-.02-62.44,210.29-.47c2.19,0,3.97-1.6,3.97-3.56,0-1.97-1.78-3.56-3.97-3.56l-210.29.47-.05-175.36,213.58-.95ZM1194.45,7.38l.05,175.36-183.89.04-.05-175.36,183.89-.04ZM807.02,7.46l195.6-.04.05,175.36-195.6.04-.05-175.36ZM807.11,365.32l-.05-175.36,195.6-.04.05,175.36-195.6.04ZM1194.55,365.23l-183.89.04-.05-175.36,183.89-.04.05,175.36Z"/>
  <path class="st3" d="M1415.5,183.08c2.19,0,3.97-1.6,3.97-3.56,0-1.97-1.78-3.56-3.97-3.56l-219.34.26-.05-175.36,81.36-.02c2.19,0,3.97-1.6,3.97-3.56,0-1.97-1.78-3.56-3.97-3.56l-81.36.02-.02-62.44c0-1.97-1.78-3.56-3.98-3.56-2.19,0-3.97,1.6-3.97,3.56l.02,62.44-183.89.04-.02-62.44c0-1.97-1.78-3.56-3.97-3.56h0c-2.19,0-3.97,1.6-3.97,3.56l.02,62.44-195.6.04-.02-62.44c0-1.97-1.78-3.56-3.97-3.56-2.19,0-3.97,1.6-3.97,3.56l.02,62.44-69.65.02c-2.19,0-3.97,1.6-3.97,3.56,0,1.97,1.78,3.56,3.98,3.56l69.65-.02.05,175.36-69.65.02c-2.19,0-3.97,1.6-3.97,3.56,0,1.97,1.78,3.56,3.98,3.56l69.65-.02.05,175.36-69.65.02c-2.19,0-3.97,1.6-3.97,3.56,0,1.97,1.78,3.56,3.98,3.56l69.65-.02.02,62.44c0,1.97,1.78,3.56,3.97,3.56,2.19,0,3.97-1.6,3.97-3.56l-.02-62.44,195.6-.04.02,62.44c0,1.97,1.78,3.56,3.97,3.56,2.19,0,3.97-1.6,3.97-3.56l-.02-62.44,183.89-.04.02,62.44c0,1.97,1.78,3.56,3.97,3.56s3.97-1.6,3.97-3.56l-.02-62.44,215.2.04c2.19,0,3.97-1.6,3.97-3.56,0-1.97-1.78-3.56-3.97-3.56l-215.2-.04-.05-175.36,219.34-.26ZM1188.16.85l.05,175.36-183.89.04-.05-175.36,183.89-.04ZM800.72.94l195.6-.04.05,175.36-195.6.04-.05-175.36ZM800.82,358.79l-.05-175.36,195.6-.04.05,175.36-195.6.04ZM1188.26,358.7l-183.89.04-.05-175.36,183.89-.04.05,175.36Z"/>
  <path class="st1" d="M1174.53,247.34l-15.72-.09v-21.78s-5.17,0-5.17,0h-5.26s.01,21.72.01,21.72l-16.93-.1v-21.62s-5.17,0-5.17,0h0s-5.26,0-5.26,0v21.55s-16.6-.09-16.6-.09v-21.45s-5.17,0-5.17,0h0s-5.26,0-5.26,0v21.38s-18.97-.11-18.97-.11v-21.27s-5.17,0-5.17,0h0s-5.26,0-5.26,0v21.2s-12.76-.07-12.76-.07l-.03,4.72h.06s-.03,4.63-.03,4.63l12.78.07v17.01s-12.59-.07-12.59-.07l-.03,4.72h.06s-.03,4.62-.03,4.62l12.61.07v14.88s-12.44-.07-12.44-.07l-.03,4.72h.06s-.03,4.62-.03,4.62l12.45.07v15.17s-12.28-.07-12.28-.07l-.03,4.72h.06s-.03,4.62-.03,4.62l12.29.07v22.87s5.17,0,5.17,0h5.26s-.01-22.81-.01-22.81l18.98.11v22.69s5.17,0,5.17,0h0s5.26,0,5.26,0v-22.62s16.6.09,16.6.09v22.53s5.17,0,5.17,0h5.26s-.01-22.46-.01-22.46l16.93.1v22.36s5.17,0,5.17,0h0s5.26,0,5.26,0v-22.29s16.19.09,16.19.09l.03-4.72h-.06s.03-4.62.03-4.62l-16.21-.09v-15.17s16.04.09,16.04.09l.03-4.72h-.06s.03-4.62.03-4.62l-16.05-.09v-14.88s15.88.09,15.88.09l.03-4.72h-.06s.03-4.62.03-4.62l-15.89-.09v-17.01s15.71.09,15.71.09l.03-4.72h-.06s.03-4.62.03-4.62ZM1121.06,282.73v14.88s-16.6-.09-16.6-.09v-14.88s16.6.09,16.6.09ZM1121.06,273.39l-16.61-.09v-17.01s16.6.09,16.6.09v17.01ZM1094.03,273.24l-18.98-.11v-17.01s18.97.11,18.97.11v17.01ZM1094.04,282.58v14.88s-18.97-.11-18.97-.11v-14.88s18.97.11,18.97.11ZM1094.05,306.8v15.17s-18.97-.11-18.97-.11v-15.17s18.97.11,18.97.11ZM1104.47,306.86l16.61.09v15.17s-16.6-.09-16.6-.09v-15.17ZM1131.5,307.01l16.93.1v15.17s-16.92-.1-16.92-.1v-15.17ZM1131.49,297.67v-14.88s16.92.1,16.92.1v14.88s-16.92-.1-16.92-.1ZM1131.47,273.45v-17.01s16.92.1,16.92.1v17.01s-16.92-.1-16.92-.1Z"/>
  <path class="st1" d="M1174.53,63.43l-13.68-.08v-22.33s-5.17,0-5.17,0h-5.26s.01,22.26.01,22.26l-16.93-.1v-22.16s-5.17,0-5.17,0h-5.26s.01,22.1.01,22.1l-16.61-.09v-21.99s-5.17,0-5.17,0h0s-5.26,0-5.26,0v21.93s-18.97-.11-18.97-.11v-21.82s-5.17,0-5.17,0h-5.26s.01,21.75.01,21.75l-14.81-.08-.03,4.72h.06s-.03,4.62-.03,4.62l14.82.08v17.01s-14.63-.08-14.63-.08l-.03,4.72h.06s-.03,4.62-.03,4.62l14.65.08v14.88s-14.48-.08-14.48-.08l-.03,4.72h.06s-.03,4.62-.03,4.62l14.49.08v15.17s-14.32-.08-14.32-.08l-.03,4.72h.06s-.03,4.62-.03,4.62l14.33.08v22.32s5.17,0,5.17,0h5.26s-.01-22.26-.01-22.26l18.98.11v22.14s5.17,0,5.17,0h5.26s-.01-22.08-.01-22.08l16.61.09v21.98s5.17,0,5.17,0h5.26s-.01-21.91-.01-21.91l16.93.1v21.81s5.17,0,5.17,0h0s5.26,0,5.26,0v-21.75s14.15.08,14.15.08l.03-4.72h-.06s.03-4.63.03-4.63l-14.17-.08v-15.17s14,.08,14,.08l.03-4.72h-.06s.03-4.62.03-4.62l-14.01-.08v-14.88s13.84.08,13.84.08l.03-4.72h-.06s.03-4.62.03-4.62l-13.85-.08v-17.01s13.67.08,13.67.08l.03-4.72h-.06s.03-4.62.03-4.62ZM1123.1,98.83v14.88s-16.6-.09-16.6-.09v-14.88s16.6.09,16.6.09ZM1123.1,89.49l-16.61-.09v-17.01s16.6.09,16.6.09v17.01ZM1096.07,89.33l-18.98-.11v-17.01s18.97.11,18.97.11v17.01ZM1096.08,98.67v14.88s-18.97-.11-18.97-.11v-14.88s18.97.11,18.97.11ZM1096.09,122.9v15.17s-18.97-.11-18.97-.11v-15.17s18.97.11,18.97.11ZM1106.51,122.96l16.61.09v15.17s-16.6-.09-16.6-.09v-15.17ZM1133.53,123.11l16.93.1v15.17s-16.92-.1-16.92-.1v-15.17ZM1133.53,113.77v-14.88s16.92.1,16.92.1v14.88s-16.92-.1-16.92-.1ZM1133.51,89.55v-17.01s16.92.1,16.92.1v17.01s-16.92-.1-16.92-.1Z"/>
  <path class="st1" d="M980.55,64.02l-13.8-.08v-22.82s-5.17,0-5.17,0h0s-5.26,0-5.26,0v22.76s-16.91-.1-16.91-.1v-22.66s-5.17,0-5.17,0h-5.26s.01,22.6.01,22.6l-16.61-.09v-22.49s-5.17,0-5.17,0h-5.26s.01,22.43.01,22.43l-18.98-.11v-22.31s-5.17,0-5.17,0h-5.26s.01,22.25.01,22.25l-14.7-.08-.03,4.72h.06s-.03,4.62-.03,4.62l14.7.08v17.01s-14.52-.08-14.52-.08l-.03,4.72h.06s-.03,4.62-.03,4.62l14.53.08v14.88s-14.36-.08-14.36-.08l-.03,4.72h.06s-.03,4.62-.03,4.62l14.38.08v15.17s-14.2-.08-14.2-.08l-.03,4.72h.06s-.03,4.62-.03,4.62l14.22.08v21.83s5.17,0,5.17,0h0s5.26,0,5.26,0v-21.76s18.97.11,18.97.11v21.65s5.17,0,5.17,0h0s5.26,0,5.26,0v-21.58s16.6.09,16.6.09v21.48s5.17,0,5.17,0h0s5.26,0,5.26,0v-21.42s16.91.1,16.91.1v21.31s5.17,0,5.17,0h5.26s-.01-21.25-.01-21.25l14.28.08.03-4.72h-.06s.03-4.62.03-4.62l-14.29-.08v-15.17s14.11.08,14.11.08l.03-4.72h-.06s.03-4.62.03-4.62l-14.13-.08v-14.88s13.96.08,13.96.08l.03-4.72h-.06s.03-4.62.03-4.62l-13.97-.08v-17.01s13.78.08,13.78.08l.03-4.72h-.06s.03-4.62.03-4.62ZM929.02,99.42v14.88s-16.6-.09-16.6-.09v-14.88s16.6.09,16.6.09ZM929.01,90.08l-16.61-.09v-17.01s16.6.09,16.6.09v17.01ZM901.98,89.92l-18.98-.11v-17.01s18.97.11,18.97.11v17.01ZM901.99,99.26v14.88s-18.97-.11-18.97-.11v-14.88s18.97.11,18.97.11ZM902,123.49v15.17s-18.97-.11-18.97-.11v-15.17s18.97.11,18.97.11ZM912.42,123.54l16.61.09v15.17s-16.6-.09-16.6-.09v-15.17ZM939.45,123.7l16.93.1v15.17s-16.92-.1-16.92-.1v-15.17ZM939.44,114.36v-14.88s16.92.1,16.92.1v14.88s-16.92-.1-16.92-.1ZM939.43,90.13v-17.01s16.92.1,16.92.1v17.01s-16.92-.1-16.92-.1Z"/>
  <path class="st1" d="M976.07,249.9l-13.68-.08v-22.33s-5.17,0-5.17,0h-5.26s.01,22.26.01,22.26l-16.93-.1v-22.16s-5.17,0-5.17,0h0s-5.26,0-5.26,0v22.1s-16.6-.09-16.6-.09v-22s-5.17,0-5.17,0h-5.26s.01,21.94.01,21.94l-18.98-.11v-21.82s-5.17,0-5.17,0h-5.26s.01,21.76.01,21.76l-14.81-.08-.03,4.72h.06s-.03,4.62-.03,4.62l14.82.08v17.01s-14.63-.08-14.63-.08l-.03,4.72h.06s-.03,4.62-.03,4.62l14.65.08v14.88s-14.47-.08-14.47-.08l-.03,4.72h.06s-.03,4.62-.03,4.62l14.49.08v15.17s-14.32-.08-14.32-.08l-.03,4.72h.06s-.03,4.62-.03,4.62l14.33.08v22.33s5.17,0,5.17,0h5.26s-.01-22.26-.01-22.26l18.98.11v22.15s5.17,0,5.17,0h5.26s-.01-22.08-.01-22.08l16.61.09v21.98s5.17,0,5.17,0h5.26s-.01-21.92-.01-21.92l16.93.1v21.81s5.17,0,5.17,0h0s5.26,0,5.26,0v-21.75s14.15.08,14.15.08l.03-4.72h-.06s.03-4.62.03-4.62l-14.17-.08v-15.17s14,.08,14,.08l.03-4.72h-.06s.03-4.63.03-4.63l-14.01-.08v-14.88s13.84.08,13.84.08l.03-4.72h-.06s.03-4.62.03-4.62l-13.85-.08v-17.01s13.67.08,13.67.08l.03-4.72h-.06s.03-4.62.03-4.62ZM924.65,285.3v14.88s-16.6-.09-16.6-.09v-14.88s16.6.09,16.6.09ZM924.64,275.96l-16.61-.09v-17.01s16.6.09,16.6.09v17.01ZM897.61,275.81l-18.98-.11v-17.01s18.97.11,18.97.11v17.01ZM897.62,285.15v14.88s-18.97-.11-18.97-.11v-14.88s18.97.11,18.97.11ZM897.63,309.37v15.17s-18.97-.11-18.97-.11v-15.17s18.97.11,18.97.11ZM908.05,309.43l16.61.09v15.17s-16.6-.09-16.6-.09v-15.17ZM935.08,309.58l16.93.1v15.17s-16.92-.1-16.92-.1v-15.17ZM935.07,300.24v-14.88s16.92.1,16.92.1v14.88s-16.92-.1-16.92-.1ZM935.06,276.02v-17.01s16.92.1,16.92.1v17.01s-16.92-.1-16.92-.1Z"/>
  <path class="st1" d="M1372.43,63.98l-13.68-.08v-22.33s-5.17,0-5.17,0h-5.26s.01,22.26.01,22.26l-16.93-.1v-22.16s-5.17,0-5.17,0h0s-5.26,0-5.26,0v22.1s-16.6-.09-16.6-.09v-22s-5.17,0-5.17,0h-5.26s.01,21.94.01,21.94l-18.98-.11v-21.82s-5.17,0-5.17,0h-5.26s.01,21.76.01,21.76l-14.81-.08-.03,4.72h.06s-.03,4.62-.03,4.62l14.82.08v17.01s-14.63-.08-14.63-.08l-.03,4.72h.06s-.03,4.62-.03,4.62l14.65.08v14.88s-14.47-.08-14.47-.08l-.03,4.72h.06s-.03,4.62-.03,4.62l14.49.08v15.17s-14.32-.08-14.32-.08l-.03,4.72h.06s-.03,4.62-.03,4.62l14.33.08v22.33s5.17,0,5.17,0h5.26s-.01-22.26-.01-22.26l18.98.11v22.15s5.17,0,5.17,0h5.26s-.01-22.08-.01-22.08l16.61.09v21.98s5.17,0,5.17,0h5.26s-.01-21.92-.01-21.92l16.93.1v21.81s5.17,0,5.17,0h0s5.26,0,5.26,0v-21.75s14.15.08,14.15.08l.03-4.72h-.06s.03-4.62.03-4.62l-14.17-.08v-15.17s14,.08,14,.08l.03-4.72h-.06s.03-4.63.03-4.63l-14.01-.08v-14.88s13.84.08,13.84.08l.03-4.72h-.06s.03-4.62.03-4.62l-13.85-.08v-17.01s13.67.08,13.67.08l.03-4.72h-.06s.03-4.62.03-4.62ZM1321.01,99.38v14.88s-16.6-.09-16.6-.09v-14.88s16.6.09,16.6.09ZM1321,90.04l-16.61-.09v-17.01s16.6.09,16.6.09v17.01ZM1293.98,89.88l-18.98-.11v-17.01s18.97.11,18.97.11v17.01ZM1293.98,99.22v14.88s-18.97-.11-18.97-.11v-14.88s18.97.11,18.97.11ZM1293.99,123.45v15.17s-18.97-.11-18.97-.11v-15.17s18.97.11,18.97.11ZM1304.41,123.51l16.61.09v15.17s-16.6-.09-16.6-.09v-15.17ZM1331.44,123.66l16.93.1v15.17s-16.92-.1-16.92-.1v-15.17ZM1331.43,114.32v-14.88s16.92.1,16.92.1v14.88s-16.92-.1-16.92-.1ZM1331.42,90.1v-17.01s16.92.1,16.92.1v17.01s-16.92-.1-16.92-.1Z"/>
  <path class="st1" d="M1373.09,249.01l-13.68-.08v-22.33s-5.17,0-5.17,0h-5.26s.01,22.26.01,22.26l-16.93-.1v-22.16s-5.17,0-5.17,0h0s-5.26,0-5.26,0v22.1s-16.6-.09-16.6-.09v-22s-5.17,0-5.17,0h-5.26s.01,21.94.01,21.94l-18.98-.11v-21.82s-5.17,0-5.17,0h-5.26s.01,21.76.01,21.76l-14.81-.08-.03,4.72h.06s-.03,4.62-.03,4.62l14.82.08v17.01s-14.63-.08-14.63-.08l-.03,4.72h.06s-.03,4.62-.03,4.62l14.65.08v14.88s-14.47-.08-14.47-.08l-.03,4.72h.06s-.03,4.62-.03,4.62l14.49.08v15.17s-14.32-.08-14.32-.08l-.03,4.72h.06s-.03,4.62-.03,4.62l14.33.08v22.33s5.17,0,5.17,0h5.26s-.01-22.26-.01-22.26l18.98.11v22.15s5.17,0,5.17,0h5.26s-.01-22.08-.01-22.08l16.61.09v21.98s5.17,0,5.17,0h5.26s-.01-21.92-.01-21.92l16.93.1v21.81s5.17,0,5.17,0h0s5.26,0,5.26,0v-21.75s14.15.08,14.15.08l.03-4.72h-.06s.03-4.62.03-4.62l-14.17-.08v-15.17s14,.08,14,.08l.03-4.72h-.06s.03-4.63.03-4.63l-14.01-.08v-14.88s13.84.08,13.84.08l.03-4.72h-.06s.03-4.62.03-4.62l-13.85-.08v-17.01s13.67.08,13.67.08l.03-4.72h-.06s.03-4.62.03-4.62ZM1321.66,284.4v14.88s-16.6-.09-16.6-.09v-14.88s16.6.09,16.6.09ZM1321.66,275.07l-16.61-.09v-17.01s16.6.09,16.6.09v17.01ZM1294.63,274.91l-18.98-.11v-17.01s18.97.11,18.97.11v17.01ZM1294.64,284.25v14.88s-18.97-.11-18.97-.11v-14.88s18.97.11,18.97.11ZM1294.65,308.48v15.17s-18.97-.11-18.97-.11v-15.17s18.97.11,18.97.11ZM1305.07,308.53l16.61.09v15.17s-16.6-.09-16.6-.09v-15.17ZM1332.1,308.69l16.93.1v15.17s-16.92-.1-16.92-.1v-15.17ZM1332.09,299.35v-14.88s16.92.1,16.92.1v14.88s-16.92-.1-16.92-.1ZM1332.07,275.12v-17.01s16.92.1,16.92.1v17.01s-16.92-.1-16.92-.1Z"/>
  <path class="st1" d="M1172.4,438.13l-13.68-.08v-22.33s-5.17,0-5.17,0h-5.26s.01,22.26.01,22.26l-16.93-.1v-22.16s-5.17,0-5.17,0h0s-5.26,0-5.26,0v22.1s-16.6-.09-16.6-.09v-22s-5.17,0-5.17,0h-5.26s.01,21.94.01,21.94l-18.98-.11v-21.82s-5.17,0-5.17,0h-5.26s.01,21.76.01,21.76l-14.81-.08-.03,4.72h.06s-.03,4.62-.03,4.62l14.82.08v17.01s-14.63-.08-14.63-.08l-.03,4.72h.06s-.03,4.62-.03,4.62l14.65.08v14.88s-14.47-.08-14.47-.08l-.03,4.72h.06s-.03,4.62-.03,4.62l14.49.08v15.17s-14.32-.08-14.32-.08l-.03,4.72h.06s-.03,4.62-.03,4.62l14.33.08v22.33s5.17,0,5.17,0h5.26s-.01-22.26-.01-22.26l18.98.11v22.15s5.17,0,5.17,0h5.26s-.01-22.08-.01-22.08l16.61.09v21.98s5.17,0,5.17,0h5.26s-.01-21.92-.01-21.92l16.93.1v21.81s5.17,0,5.17,0h0s5.26,0,5.26,0v-21.75s14.15.08,14.15.08l.03-4.72h-.06s.03-4.62.03-4.62l-14.17-.08v-15.17s14,.08,14,.08l.03-4.72h-.06s.03-4.63.03-4.63l-14.01-.08v-14.88s13.84.08,13.84.08l.03-4.72h-.06s.03-4.62.03-4.62l-13.85-.08v-17.01s13.67.08,13.67.08l.03-4.72h-.06s.03-4.62.03-4.62ZM1120.98,473.53v14.88s-16.6-.09-16.6-.09v-14.88s16.6.09,16.6.09ZM1120.98,464.19l-16.61-.09v-17.01s16.6.09,16.6.09v17.01ZM1093.95,464.04l-18.98-.11v-17.01s18.97.11,18.97.11v17.01ZM1093.95,473.38v14.88s-18.97-.11-18.97-.11v-14.88s18.97.11,18.97.11ZM1093.97,497.6v15.17s-18.97-.11-18.97-.11v-15.17s18.97.11,18.97.11ZM1104.39,497.66l16.61.09v15.17s-16.6-.09-16.6-.09v-15.17ZM1131.41,497.81l16.93.1v15.17s-16.92-.1-16.92-.1v-15.17ZM1131.41,488.47v-14.88s16.92.1,16.92.1v14.88s-16.92-.1-16.92-.1ZM1131.39,464.25v-17.01s16.92.1,16.92.1v17.01s-16.92-.1-16.92-.1Z"/>
  <path class="st1" d="M977.06,439.89l-13.68-.08v-22.33s-5.17,0-5.17,0h-5.26s.01,22.26.01,22.26l-16.93-.1v-22.16s-5.17,0-5.17,0h0s-5.26,0-5.26,0v22.1s-16.6-.09-16.6-.09v-22s-5.17,0-5.17,0h-5.26s.01,21.94.01,21.94l-18.98-.11v-21.82s-5.17,0-5.17,0h-5.26s.01,21.76.01,21.76l-14.81-.08-.03,4.72h.06s-.03,4.62-.03,4.62l14.82.08v17.01s-14.63-.08-14.63-.08l-.03,4.72h.06s-.03,4.62-.03,4.62l14.65.08v14.88s-14.47-.08-14.47-.08l-.03,4.72h.06s-.03,4.62-.03,4.62l14.49.08v15.17s-14.32-.08-14.32-.08l-.03,4.72h.06s-.03,4.62-.03,4.62l14.33.08v22.33s5.17,0,5.17,0h5.26s-.01-22.26-.01-22.26l18.98.11v22.15s5.17,0,5.17,0h5.26s-.01-22.08-.01-22.08l16.61.09v21.98s5.17,0,5.17,0h5.26s-.01-21.92-.01-21.92l16.93.1v21.81s5.17,0,5.17,0h0s5.26,0,5.26,0v-21.75s14.15.08,14.15.08l.03-4.72h-.06s.03-4.62.03-4.62l-14.17-.08v-15.17s14,.08,14,.08l.03-4.72h-.06s.03-4.63.03-4.63l-14.01-.08v-14.88s13.84.08,13.84.08l.03-4.72h-.06s.03-4.62.03-4.62l-13.85-.08v-17.01s13.67.08,13.67.08l.03-4.72h-.06s.03-4.62.03-4.62ZM925.64,475.29v14.88s-16.6-.09-16.6-.09v-14.88s16.6.09,16.6.09ZM925.64,465.95l-16.61-.09v-17.01s16.6.09,16.6.09v17.01ZM898.61,465.8l-18.98-.11v-17.01s18.97.11,18.97.11v17.01ZM898.62,475.14v14.88s-18.97-.11-18.97-.11v-14.88s18.97.11,18.97.11ZM898.63,499.36v15.17s-18.97-.11-18.97-.11v-15.17s18.97.11,18.97.11ZM909.05,499.42l16.61.09v15.17s-16.6-.09-16.6-.09v-15.17ZM936.07,499.57l16.93.1v15.17s-16.92-.1-16.92-.1v-15.17ZM936.07,490.23v-14.88s16.92.1,16.92.1v14.88s-16.92-.1-16.92-.1ZM936.05,466.01v-17.01s16.92.1,16.92.1v17.01s-16.92-.1-16.92-.1Z"/>
  <path class="st1" d="M1372.2,436.37l-13.68-.08v-22.33s-5.17,0-5.17,0h-5.26s.01,22.26.01,22.26l-16.93-.1v-22.16s-5.17,0-5.17,0h0s-5.26,0-5.26,0v22.1s-16.6-.09-16.6-.09v-22s-5.17,0-5.17,0h-5.26s.01,21.94.01,21.94l-18.98-.11v-21.82s-5.17,0-5.17,0h-5.26s.01,21.76.01,21.76l-14.81-.08-.03,4.72h.06s-.03,4.62-.03,4.62l14.82.08v17.01s-14.63-.08-14.63-.08l-.03,4.72h.06s-.03,4.62-.03,4.62l14.65.08v14.88s-14.47-.08-14.47-.08l-.03,4.72h.06s-.03,4.62-.03,4.62l14.49.08v15.17s-14.32-.08-14.32-.08l-.03,4.72h.06s-.03,4.62-.03,4.62l14.33.08v22.33s5.17,0,5.17,0h5.26s-.01-22.26-.01-22.26l18.98.11v22.15s5.17,0,5.17,0h5.26s-.01-22.08-.01-22.08l16.61.09v21.98s5.17,0,5.17,0h5.26s-.01-21.92-.01-21.92l16.93.1v21.81s5.17,0,5.17,0h0s5.26,0,5.26,0v-21.75s14.15.08,14.15.08l.03-4.72h-.06s.03-4.62.03-4.62l-14.17-.08v-15.17s14,.08,14,.08l.03-4.72h-.06s.03-4.63.03-4.63l-14.01-.08v-14.88s13.84.08,13.84.08l.03-4.72h-.06s.03-4.62.03-4.62l-13.85-.08v-17.01s13.67.08,13.67.08l.03-4.72h-.06s.03-4.62.03-4.62ZM1320.78,471.77v14.88s-16.6-.09-16.6-.09v-14.88s16.6.09,16.6.09ZM1320.78,462.43l-16.61-.09v-17.01s16.6.09,16.6.09v17.01ZM1293.75,462.28l-18.98-.11v-17.01s18.97.11,18.97.11v17.01ZM1293.75,471.62v14.88s-18.97-.11-18.97-.11v-14.88s18.97.11,18.97.11ZM1293.77,495.84v15.17s-18.97-.11-18.97-.11v-15.17s18.97.11,18.97.11ZM1304.19,495.9l16.61.09v15.17s-16.6-.09-16.6-.09v-15.17ZM1331.21,496.05l16.93.1v15.17s-16.92-.1-16.92-.1v-15.17ZM1331.21,486.71v-14.88s16.92.1,16.92.1v14.88s-16.92-.1-16.92-.1ZM1331.19,462.49v-17.01s16.92.1,16.92.1v17.01s-16.92-.1-16.92-.1Z"/>
  <g>
    <path class="st2" d="M-1101.51-273.39h-413.84c-17.58,0-31.83,14.25-31.83,31.83v31.83h477.51v-31.83c0-17.58-14.25-31.83-31.83-31.83Z"/>
    <path class="st1" d="M-1467.6-337.06c-17.58,0-31.83,14.25-31.83,31.83h382.01c0-17.58-14.25-31.83-31.83-31.83h-318.34Z"/>
    <path class="st2" d="M-1340.26-671.32c-11.46,79.59-80.54,143.25-118.42,173.34-30.72,23.88-24.83,55.07-24.83,97.25,13.18,6.54,23.28,17.96,28.17,31.83h293.83c9.71-27.7,31.83-33.27,72.74-54.12l-66.37-26.58c-8.18-3.25-12.17-12.52-8.91-20.69,3.25-8.18,12.52-12.17,20.69-8.91l73.7,29.29-1.91-30.4-83.56-33.43c-8.18-3.25-12.17-12.52-8.91-20.69,3.25-8.18,12.52-12.17,20.69-8.91h0l70.51,28.33-1.27-28.97-81.02-31.83c-8.18-3.25-12.17-12.52-8.91-20.69,3.25-8.18,12.52-12.17,20.69-8.91l67.81,27.06-1.11-29.76-78.47-31.83c-8.18-3.25-12.17-12.52-8.91-20.69,3.25-8.18,12.52-12.17,20.69-8.91l65.26,26.1c-.14-10.12-.88-20.22-2.23-30.24l-74.81-29.92c-8.18-3.25-12.17-12.52-8.91-20.69,3.25-8.18,12.52-12.17,20.69-8.91l54.28,21.65c-24.93-78.1-90.92-136.08-171.59-150.73-25.89-39.52-65.64-67.91-111.42-79.59l15.92,79.59c-57.02.05-107.63,36.51-125.74,90.57-2.23,7,7.64-4.3-65.26,68.6l47.75,63.67,159.17-31.83ZM-1399.32-794.04c6.19-6.24,16.27-6.28,22.51-.09,3.04,3.01,4.73,7.12,4.71,11.39,0,8.79-7.13,15.92-15.92,15.92-8.79.05-15.96-7.03-16.01-15.82-.02-4.28,1.67-8.38,4.71-11.39Z"/>
  </g>
  <g>
    <polygon class="st2" points="-121.36 -430.37 -484.39 -487.91 -484.39 -619.46 -121.36 -619.46 -121.36 -430.37"/>
    <rect class="st2" x="-311.7" y="-880.42" width="17.41" height="229.61"/>
    <rect class="st1" x="-580.12" y="-641.84" width="552" height="22.38" rx="-298.54" ry="-298.54"/>
  </g>
  <rect class="st1" x="159.99" y="132.36" width="4.24" height="320.24"/>
  <rect class="st1" x="196.5" y="132.36" width="4.24" height="320.24"/>
  <rect class="st1" x="233.01" y="132.36" width="4.24" height="320.24"/>
  <rect class="st1" x="269.51" y="132.36" width="4.24" height="320.24"/>
  <rect class="st1" x="306.02" y="132.36" width="4.24" height="320.24"/>
  <rect class="st1" x="342.53" y="132.36" width="4.24" height="320.24"/>
  <rect class="st1" x="379.03" y="132.36" width="4.24" height="320.24"/>
  <rect class="st1" x="415.54" y="132.36" width="4.24" height="320.24"/>
  <rect class="st1" x="288.64" y="5.62" width="4.24" height="317.57" transform="translate(455.16 -126.35) rotate(90)"/>
  <rect class="st1" x="288.64" y="42.13" width="4.24" height="317.57" transform="translate(491.67 -89.85) rotate(90)"/>
  <rect class="st1" x="288.64" y="78.63" width="4.24" height="317.57" transform="translate(528.18 -53.34) rotate(90)"/>
  <rect class="st1" x="288.64" y="115.14" width="4.24" height="317.57" transform="translate(564.68 -16.84) rotate(90)"/>
  <rect class="st1" x="288.64" y="151.65" width="4.24" height="317.57" transform="translate(601.19 19.67) rotate(90)"/>
  <rect class="st1" x="288.64" y="188.15" width="4.24" height="317.57" transform="translate(637.7 56.18) rotate(90)"/>
  <rect class="st1" x="288.64" y="224.66" width="4.24" height="317.57" transform="translate(674.2 92.68) rotate(90)"/>
  <rect class="st1" x="288.64" y="261.17" width="4.24" height="317.57" transform="translate(710.71 129.19) rotate(90)"/>
</svg>